<?xml version="1.0" encoding="UTF-8"?>
<svg height="128px" viewBox="0 0 128 128" width="128px" xmlns="http://www.w3.org/2000/svg" xmlns:xlink="http://www.w3.org/1999/xlink">
    <clipPath id="a">
        <path d="m 4 4 h 120 v 120 h -120 z m 0 0"/>
    </clipPath>
    <clipPath id="b">
        <path d="m 124 64 c 0 33.136719 -26.863281 60 -60 60 s -60 -26.863281 -60 -60 s 26.863281 -60 60 -60 s 60 26.863281 60 60 z m 0 0"/>
    </clipPath>
    <radialGradient id="c" cx="67.395325" cy="78.078407" gradientTransform="matrix(0.993465 0.114141 -0.0696102 0.605876 5.875507 23.079985)" gradientUnits="userSpaceOnUse" r="66.149475">
        <stop offset="0" stop-color="#0092dc"/>
        <stop offset="1" stop-color="#7300ee"/>
    </radialGradient>
    <linearGradient id="d" gradientUnits="userSpaceOnUse" x1="96.999573" x2="10.99957" y1="102" y2="48">
        <stop offset="0" stop-color="#0000dc"/>
        <stop offset="1" stop-color="#b700d8"/>
    </linearGradient>
    <linearGradient id="e" gradientUnits="userSpaceOnUse" x1="383.593933" x2="-30.721367" y1="564.136047" y2="226.685226">
        <stop offset="0" stop-color="#2a00d7"/>
        <stop offset="1" stop-color="#a500a6"/>
    </linearGradient>
    <linearGradient id="f" gradientUnits="userSpaceOnUse" x1="68" x2="116" y1="26" y2="42">
        <stop offset="0" stop-color="#0011d5"/>
        <stop offset="1" stop-color="#5a00c4"/>
    </linearGradient>
    <linearGradient id="g" gradientUnits="userSpaceOnUse" x1="-32.208172" x2="290.452393" y1="409.031586" y2="376.746399">
        <stop offset="0" stop-color="#003ba2"/>
        <stop offset="0.303471" stop-color="#0d00ad"/>
        <stop offset="1" stop-color="#b1006f"/>
    </linearGradient>
    <linearGradient id="h" gradientUnits="userSpaceOnUse" x1="83.499115" x2="298.114777" y1="259.5914" y2="469.097168">
        <stop offset="0" stop-color="#002fe8"/>
        <stop offset="0.589744" stop-color="#982ae9"/>
        <stop offset="1" stop-color="#c500ee"/>
    </linearGradient>
    <g clip-path="url(#a)">
        <g clip-path="url(#b)">
            <path d="m 4 4 h 120 v 120 h -120 z m 0 0" fill="#5c009d"/>
            <g fill="none">
                <path d="m 78.001675 59.999695 c -0.003906 0 -0.003906 0 -0.003906 0 c -0.019532 -0.015625 0.007812 -0.046875 0.019531 -0.054688 c 0.101562 -0.066406 0.21875 0.0625 0.253906 0.144532 c 0.144531 0.363281 -0.25 0.6875 -0.558594 0.765625 c -0.941406 0.230468 -1.675781 -0.734375 -1.796875 -1.558594 c -0.296875 -2.027344 1.730469 -3.480469 3.542969 -3.617188 c 3.847656 -0.292968 6.464844 3.53125 6.546875 7.027344 c 0.15625 6.675781 -6.484375 11.058594 -12.621094 10.949219 c -10.832031 -0.191406 -17.765625 -10.992188 -17.261718 -21.046875 c 0.835937 -16.679688 17.546875 -27.148438 33.144531 -25.953125 c 24.617187 1.886719 39.835937 26.671875 37.550781 49.839844 c -3.460937 35.097656 -38.972656 56.539062 -72.179687 52.644531 c -25.949219 -3.039063 -48.613282 -19.769531 -61.152344 -42.40625" stroke="url(#c)" stroke-width="13" transform="matrix(1 0 0 1 -2.845425 -6.999695)"/>
                <path d="m 69.99957 76 s 0 0 0 -0.003906 c 0.003906 -0.015625 0.03125 -0.007813 0.039062 -0.003906 c 0.078125 0.039062 0.039063 0.160156 0 0.210937 c -0.179687 0.214844 -0.519531 0.082031 -0.675781 -0.085937 c -0.476562 -0.507813 -0.128906 -1.308594 0.347656 -1.671876 c 1.167969 -0.898437 2.792969 -0.136718 3.515625 0.953126 c 1.53125 2.3125 0.050782 5.300781 -2.113281 6.578124 c -4.136719 2.441407 -9.222656 -0.1875 -11.308594 -4.078124 c -3.683593 -6.871094 0.667969 -15.015626 7.15625 -18.226563 c 10.765625 -5.332031 23.203125 1.484375 27.929688 11.695313 c 7.457031 16.117187 -2.757813 34.375 -18.105469 41.074218 c -23.253906 10.148438 -49.183594 -4.621094 -58.394531 -26.835937 c -13.488281 -32.523438 7.210937 -68.335938 38.378906 -80.691407 c 4.023438 -1.597656 8.1875 -2.832031 12.429688 -3.703124" stroke="url(#d)" stroke-width="13.6" transform="matrix(1 0 0 1 -2.99957 -6)"/>
                <path d="m 155.433617 351.92847 c -0.018391 0 0 -0.017345 0 -0.017345 c 0.018391 -0.017344 0.055173 0 0.073564 0.017345 c 0.073565 0.069377 0 0.190787 -0.073564 0.24282 c -0.202302 0.138754 -0.478169 -0.017344 -0.588516 -0.208132 c -0.275867 -0.48564 0.073564 -1.040658 0.514951 -1.266134 c 0.937948 -0.468297 2.004633 0.225476 2.372456 1.110035 c 0.735645 1.682398 -0.514952 3.503551 -2.096589 4.110601 c -2.813842 1.075347 -5.738031 -0.988625 -6.657588 -3.642304 c -1.544854 -4.440143 1.728766 -8.914974 5.921943 -10.250486 c 6.657588 -2.116006 13.278394 2.792433 15.135898 9.105761 c 2.850625 9.66078 -4.285133 19.113427 -13.480696 21.628352 c -13.554261 3.711682 -26.685526 -6.313328 -30.01432 -19.269526 c -4.763302 -18.541065 8.993261 -36.336324 26.777481 -40.637713 c 24.809631 -6.018474 48.423838 12.435869 53.904394 36.266948 c 7.466798 32.555265 -16.791099 63.341411 -48.147971 70.192413 c -42.005334 9.175139 -81.491084 -22.18337 -89.951003 -62.699672 c -11.126632 -53.385779 28.800505 -103.320041 80.406008 -113.657249 c 66.925312 -13.372461 129.289624 36.787277 141.758808 101.620299 c 15.945107 82.923135 -46.327249 159.931861 -126.78843 174.830622 c -101.666151 18.853262 -195.755158 -57.635135 -213.447422 -156.410967 c -22.106135 -123.439438 70.916186 -237.339507 190.991855 -258.152676 c 148.545134 -25.756297 285.283165 86.374652 309.614626 231.043523 c 29.812017 177.345546 -104.240909 340.208596 -277.135895 368.445128 c -12.708269 2.081317 -25.526885 3.451518 -38.382282 4.14529" stroke="url(#e)" stroke-width="60.636501" transform="matrix(0.212399 0 0 0.225218 32.525177 -15.053589)"/>
                <path d="m 72.125 79.65625 h 0.011719 c 0.066406 0.015625 0.035156 0.132812 0.015625 0.164062 c -0.175782 0.324219 -0.675782 0.148438 -0.882813 -0.027343 c -0.925781 -0.785157 -0.308593 -2.246094 0.425781 -2.90625 c 2.285157 -2.042969 5.757813 -0.421875 7.3125 1.699219 c 3.890626 5.289062 0.292969 12.449218 -4.625 15.554687 c -10.585937 6.683594 -23.890624 -0.367187 -29.417968 -10.246094 c -10.695313 -19.125 1.925781 -41.992187 19.859375 -51.074219 c 21.085937 -10.671874 46.765625 -4.90625 64.226562 10.03125" stroke="url(#f)" stroke-width="12" transform="matrix(1 0 0 1 -8 -12)"/>
                <path d="m 155.426501 351.927152 v -0.012612 c 0.012603 -0.025222 0.063019 -0.012611 0.075623 0.012612 c 0.075624 0.075668 0 0.189171 -0.06302 0.239617 c -0.201662 0.151336 -0.478949 -0.012612 -0.592384 -0.201783 c -0.28989 -0.479233 0.075623 -1.046747 0.516761 -1.273752 c 0.945294 -0.466622 1.99142 0.239617 2.369538 1.109804 c 0.743632 1.689928 -0.504157 3.505971 -2.092252 4.111318 c -2.810676 1.084581 -5.734787 -0.98369 -6.654874 -3.632085 c -1.550283 -4.439214 1.714135 -8.928875 5.911243 -10.253072 c 6.667477 -2.131328 13.284539 2.78712 15.137317 9.105434 c 2.848487 9.660337 -4.285336 19.118891 -13.473599 21.62856 c -13.561826 3.720365 -26.695119 -6.318314 -30.022556 -19.270227 c -4.75168 -18.551377 8.999205 -36.34607 26.770743 -40.646559 c 24.817133 -6.003029 48.436894 12.434845 53.906998 36.283013 c 7.47413 32.550037 -16.775827 63.334477 -48.134399 70.18247 c -42.008891 9.181103 -81.496997 -22.17085 -89.954232 -62.703907 c -11.141872 -53.371467 28.78737 -103.325243 80.400454 -113.641373 c 66.926856 -13.393312 129.291091 36.774858 141.756375 101.597481 c 15.956573 82.945213 -46.332038 159.937842 -126.782909 174.857135 c -101.675884 18.841439 -195.764204 -57.659345 -213.447515 -156.41926 c -5.58354 -31.13756 -3.856802 -63.422758 4.625642 -93.879301" stroke="url(#g)" stroke-width="42.803799" transform="matrix(0.309923 0 0 0.309739 15.98206 -44.69323)"/>
                <path d="m 155.426895 351.928822 s 0 -0.00998 0 -0.01996 c 0.01996 -0.019961 0.059881 0 0.069862 0.00998 c 0.079842 0.079842 0.00998 0.199605 -0.059882 0.239527 c -0.199605 0.159684 -0.479053 -0.009981 -0.598816 -0.199606 c -0.279447 -0.479053 0.089823 -1.047928 0.518974 -1.267494 c 0.948125 -0.469072 2.006034 0.239527 2.385284 1.10781 c 0.728559 1.696645 -0.518974 3.503074 -2.095856 4.11187 c -2.824416 1.087849 -5.738654 -0.988047 -6.656838 -3.632817 c -1.546941 -4.441219 1.716606 -8.922359 5.898337 -10.249734 c 6.666819 -2.125797 13.293716 2.784494 15.150045 9.111983 c 2.844376 9.650918 -4.291514 19.102231 -13.48334 21.627238 c -13.553202 3.712659 -26.687233 -6.317509 -30.010662 -19.271895 c -4.760587 -18.553316 8.99222 -36.348131 26.767075 -40.649626 c 24.820924 -6.00812 48.434235 12.435412 53.903421 36.278269 c 7.475219 32.55563 -16.776829 63.344753 -48.134827 70.191216 c -41.996962 9.171865 -81.488877 -22.176153 -89.952143 -62.715996 c -11.137978 -53.374466 28.793069 -103.31572 80.401028 -113.635316 c 66.927669 -13.393518 129.294355 36.777282 141.759708 101.599115 c 15.948466 82.936016 -46.338378 159.933773 -126.789308 174.854272 c -71.049518 13.163972 -143.426412 -21.088304 -183.058051 -80.530772" stroke="url(#h)" stroke-linecap="round" stroke-width="33.883499" transform="matrix(0.391397 0 0 0.391397 3.318668 -73.603386)"/>
            </g>
        </g>
    </g>
</svg>
