<?xml version="1.0" encoding="UTF-8"?>
<svg height="128px" viewBox="0 0 128 128" width="128px" xmlns="http://www.w3.org/2000/svg" xmlns:xlink="http://www.w3.org/1999/xlink">
    <linearGradient id="a" gradientTransform="matrix(0.857143 0 0 1 9.142857 -172)" gradientUnits="userSpaceOnUse" x1="7.842921" x2="119.956627" y1="284.301208" y2="284.301208">
        <stop offset="0" stop-color="#4b4b4b"/>
        <stop offset="0.0620315" stop-color="#5e5c64"/>
        <stop offset="0.174673" stop-color="#3d3846"/>
        <stop offset="0.830765" stop-color="#3d3846"/>
        <stop offset="0.929443" stop-color="#5e5c64"/>
        <stop offset="1" stop-color="#241f31"/>
    </linearGradient>
    <linearGradient id="b" gradientTransform="matrix(1 0 0 0.951219 0 -160.04878)" gradientUnits="userSpaceOnUse" x1="8" x2="120" y1="284" y2="284">
        <stop offset="0" stop-color="#9a9996"/>
        <stop offset="0.0730242" stop-color="#241f31"/>
        <stop offset="0.919774" stop-color="#241f31"/>
        <stop offset="1" stop-color="#9a9996"/>
    </linearGradient>
    <linearGradient id="c" gradientUnits="userSpaceOnUse" x1="16.397379" x2="43.602623" y1="61.613037" y2="61.613037">
        <stop offset="0" stop-color="#a51d2d"/>
        <stop offset="0.0620315" stop-color="#f66151"/>
        <stop offset="0.174673" stop-color="#c01c28"/>
        <stop offset="0.830765" stop-color="#c01c28"/>
        <stop offset="0.929443" stop-color="#f66151"/>
        <stop offset="1" stop-color="#a51d2d"/>
    </linearGradient>
    <linearGradient id="d" gradientUnits="userSpaceOnUse" x1="50.447365" x2="77.552635" y1="61.715347" y2="61.715347">
        <stop offset="0" stop-color="#229660"/>
        <stop offset="0.0751897" stop-color="#8ff0a4"/>
        <stop offset="0.178879" stop-color="#26a269"/>
        <stop offset="0.863696" stop-color="#26a269"/>
        <stop offset="0.940996" stop-color="#8ff0a4"/>
        <stop offset="1" stop-color="#229660"/>
    </linearGradient>
    <linearGradient id="e" gradientUnits="userSpaceOnUse">
        <stop offset="0" stop-color="#443a5c"/>
        <stop offset="0.0620315" stop-color="#7d6fa3"/>
        <stop offset="0.174673" stop-color="#241f31"/>
        <stop offset="0.830765" stop-color="#241f31"/>
        <stop offset="0.929443" stop-color="#51476f"/>
        <stop offset="1" stop-color="#241f31"/>
    </linearGradient>
    <linearGradient id="f" x1="84.240303" x2="111.759705" xlink:href="#e" y1="61.231934" y2="61.231934"/>
    <linearGradient id="g" x1="50.240303" x2="77.759705" xlink:href="#e" y1="95.231934" y2="95.231934"/>
    <linearGradient id="h" gradientUnits="userSpaceOnUse" x1="84.480309" x2="111.561043" y1="95.779144" y2="95.779144">
        <stop offset="0" stop-color="#1c71d8"/>
        <stop offset="0.0751897" stop-color="#6da7ec"/>
        <stop offset="0.178879" stop-color="#1963be"/>
        <stop offset="0.863696" stop-color="#1c71d8"/>
        <stop offset="0.940996" stop-color="#71a9ed"/>
        <stop offset="1" stop-color="#1b6acb"/>
    </linearGradient>
    <linearGradient id="i" x1="16.240303" x2="43.759705" xlink:href="#e" y1="95.231934" y2="95.231934"/>
    <filter id="j" height="100%" width="100%" x="0%" y="0%">
        <feColorMatrix in="SourceGraphic" type="matrix" values="0 0 0 0 1 0 0 0 0 1 0 0 0 0 1 0 0 0 1 0"/>
    </filter>
    <mask id="k">
        <g filter="url(#j)">
            <rect fill-opacity="0.152" height="128" width="128"/>
        </g>
    </mask>
    <linearGradient id="l" gradientUnits="userSpaceOnUse" x1="37.999704" x2="134" y1="55.986099" y2="110">
        <stop offset="0" stop-color="#ffffff" stop-opacity="0"/>
        <stop offset="0.160638" stop-color="#ffffff" stop-opacity="0.839216"/>
        <stop offset="0.34608" stop-color="#ffffff" stop-opacity="0.109804"/>
        <stop offset="0.518134" stop-color="#ffffff"/>
        <stop offset="0.78217" stop-color="#ffffff" stop-opacity="0"/>
        <stop offset="0.811507" stop-color="#ffffff" stop-opacity="0.184314"/>
        <stop offset="0.878892" stop-color="#ffffff"/>
        <stop offset="0.953738" stop-color="#ffffff" stop-opacity="0.043137"/>
        <stop offset="1" stop-color="#ffffff" stop-opacity="0"/>
    </linearGradient>
    <clipPath id="m">
        <rect height="152" width="192"/>
    </clipPath>
    <path d="m 26 28 h 76 c 5.523438 0 10 4.476562 10 10 v 68 c 0 5.523438 -4.476562 10 -10 10 h -76 c -5.523438 0 -10 -4.476562 -10 -10 v -68 c 0 -5.523438 4.476562 -10 10 -10 z m 0 0" fill="url(#a)"/>
    <path d="m 18 34 h 92 c 5.523438 0 10 4.476562 10 10 v 58 c 0 5.523438 -4.476562 10 -10 10 h -92 c -5.523438 0 -10 -4.476562 -10 -10 v -58 c 0 -5.523438 4.476562 -10 10 -10 z m 0 0" fill="url(#b)"/>
    <path d="m 18 28 h 92 c 5.523438 0 10 4.476562 10 10 v 58 c 0 5.523438 -4.476562 10 -10 10 h -92 c -5.523438 0 -10 -4.476562 -10 -10 v -58 c 0 -5.523438 4.476562 -10 10 -10 z m 0 0" fill="#5e5c64"/>
    <path d="m 20.171875 36 h 19.65625 c 2.304687 0 4.171875 1.867188 4.171875 4.171875 v 19.65625 c 0 2.304687 -1.867188 4.171875 -4.171875 4.171875 h -19.65625 c -2.304687 0 -4.171875 -1.867188 -4.171875 -4.171875 v -19.65625 c 0 -2.304687 1.867188 -4.171875 4.171875 -4.171875 z m 0 0" fill="url(#c)"/>
    <path d="m 20.171875 36 h 19.65625 c 2.304687 0 4.171875 1.867188 4.171875 4.171875 v 15.65625 c 0 2.304687 -1.867188 4.171875 -4.171875 4.171875 h -19.65625 c -2.304687 0 -4.171875 -1.867188 -4.171875 -4.171875 v -15.65625 c 0 -2.304687 1.867188 -4.171875 4.171875 -4.171875 z m 0 0" fill="#ed333b"/>
    <path d="m 54.171875 36 h 19.65625 c 2.304687 0 4.171875 1.867188 4.171875 4.171875 v 19.65625 c 0 2.304687 -1.867188 4.171875 -4.171875 4.171875 h -19.65625 c -2.304687 0 -4.171875 -1.867188 -4.171875 -4.171875 v -19.65625 c 0 -2.304687 1.867188 -4.171875 4.171875 -4.171875 z m 0 0" fill="url(#d)"/>
    <path d="m 88.171875 36 h 19.65625 c 2.304687 0 4.171875 1.867188 4.171875 4.171875 v 19.65625 c 0 2.304687 -1.867188 4.171875 -4.171875 4.171875 h -19.65625 c -2.304687 0 -4.171875 -1.867188 -4.171875 -4.171875 v -19.65625 c 0 -2.304687 1.867188 -4.171875 4.171875 -4.171875 z m 0 0" fill="url(#f)"/>
    <path d="m 88.171875 36 h 19.65625 c 2.304687 0 4.171875 1.867188 4.171875 4.171875 v 15.65625 c 0 2.304687 -1.867188 4.171875 -4.171875 4.171875 h -19.65625 c -2.304687 0 -4.171875 -1.867188 -4.171875 -4.171875 v -15.65625 c 0 -2.304687 1.867188 -4.171875 4.171875 -4.171875 z m 0 0" fill="#3d3846"/>
    <path d="m 54.171875 70 h 19.65625 c 2.304687 0 4.171875 1.867188 4.171875 4.171875 v 19.65625 c 0 2.304687 -1.867188 4.171875 -4.171875 4.171875 h -19.65625 c -2.304687 0 -4.171875 -1.867188 -4.171875 -4.171875 v -19.65625 c 0 -2.304687 1.867188 -4.171875 4.171875 -4.171875 z m 0 0" fill="url(#g)"/>
    <path d="m 88.171875 70 h 19.65625 c 2.304687 0 4.171875 1.867188 4.171875 4.171875 v 19.65625 c 0 2.304687 -1.867188 4.171875 -4.171875 4.171875 h -19.65625 c -2.304687 0 -4.171875 -1.867188 -4.171875 -4.171875 v -19.65625 c 0 -2.304687 1.867188 -4.171875 4.171875 -4.171875 z m 0 0" fill="url(#h)"/>
    <path d="m 54.171875 36 h 19.65625 c 2.304687 0 4.171875 1.867188 4.171875 4.171875 v 15.65625 c 0 2.304687 -1.867188 4.171875 -4.171875 4.171875 h -19.65625 c -2.304687 0 -4.171875 -1.867188 -4.171875 -4.171875 v -15.65625 c 0 -2.304687 1.867188 -4.171875 4.171875 -4.171875 z m 0 0" fill="#33d17a"/>
    <path d="m 88.171875 70 h 19.65625 c 2.304687 0 4.171875 1.867188 4.171875 4.171875 v 15.65625 c 0 2.304687 -1.867188 4.171875 -4.171875 4.171875 h -19.65625 c -2.304687 0 -4.171875 -1.867188 -4.171875 -4.171875 v -15.65625 c 0 -2.304687 1.867188 -4.171875 4.171875 -4.171875 z m 0 0" fill="#62a0ea"/>
    <path d="m 54.171875 70 h 19.65625 c 2.304687 0 4.171875 1.867188 4.171875 4.171875 v 15.65625 c 0 2.304687 -1.867188 4.171875 -4.171875 4.171875 h -19.65625 c -2.304687 0 -4.171875 -1.867188 -4.171875 -4.171875 v -15.65625 c 0 -2.304687 1.867188 -4.171875 4.171875 -4.171875 z m 0 0" fill="#3d3846"/>
    <path d="m 20.171875 70 h 19.65625 c 2.304687 0 4.171875 1.867188 4.171875 4.171875 v 19.65625 c 0 2.304687 -1.867188 4.171875 -4.171875 4.171875 h -19.65625 c -2.304687 0 -4.171875 -1.867188 -4.171875 -4.171875 v -19.65625 c 0 -2.304687 1.867188 -4.171875 4.171875 -4.171875 z m 0 0" fill="url(#i)"/>
    <path d="m 20.171875 70 h 19.65625 c 2.304687 0 4.171875 1.867188 4.171875 4.171875 v 15.65625 c 0 2.304687 -1.867188 4.171875 -4.171875 4.171875 h -19.65625 c -2.304687 0 -4.171875 -1.867188 -4.171875 -4.171875 v -15.65625 c 0 -2.304687 1.867188 -4.171875 4.171875 -4.171875 z m 0 0" fill="#3d3846"/>
    <g clip-path="url(#m)" mask="url(#k)" transform="matrix(1 0 0 1 -8 -16)">
        <path d="m 28.171875 86 h 19.65625 c 2.3125 0 4.171875 1.859375 4.171875 4.171875 v 15.65625 c 0 2.3125 -1.859375 4.171875 -4.171875 4.171875 h -19.65625 c -2.3125 0 -4.171875 -1.859375 -4.171875 -4.171875 v -15.65625 c 0 -2.3125 1.859375 -4.171875 4.171875 -4.171875 z m 34 0 h 19.65625 c 2.3125 0 4.171875 1.859375 4.171875 4.171875 v 15.65625 c 0 2.3125 -1.859375 4.171875 -4.171875 4.171875 h -19.65625 c -2.3125 0 -4.171875 -1.859375 -4.171875 -4.171875 v -15.65625 c 0 -2.3125 1.859375 -4.171875 4.171875 -4.171875 z m 34 0 h 19.65625 c 2.3125 0 4.171875 1.859375 4.171875 4.171875 v 15.65625 c 0 2.3125 -1.859375 4.171875 -4.171875 4.171875 h -19.65625 c -2.3125 0 -4.171875 -1.859375 -4.171875 -4.171875 v -15.65625 c 0 -2.3125 1.859375 -4.171875 4.171875 -4.171875 z m 0 -34 h 19.65625 c 2.3125 0 4.171875 1.859375 4.171875 4.171875 v 15.65625 c 0 2.3125 -1.859375 4.171875 -4.171875 4.171875 h -19.65625 c -2.3125 0 -4.171875 -1.859375 -4.171875 -4.171875 v -15.65625 c 0 -2.3125 1.859375 -4.171875 4.171875 -4.171875 z m -34 0 h 19.65625 c 2.3125 0 4.171875 1.859375 4.171875 4.171875 v 15.65625 c 0 2.3125 -1.859375 4.171875 -4.171875 4.171875 h -19.65625 c -2.3125 0 -4.171875 -1.859375 -4.171875 -4.171875 v -15.65625 c 0 -2.3125 1.859375 -4.171875 4.171875 -4.171875 z m -34 0 h 19.65625 c 2.3125 0 4.171875 1.859375 4.171875 4.171875 v 15.65625 c 0 2.3125 -1.859375 4.171875 -4.171875 4.171875 h -19.65625 c -2.3125 0 -4.171875 -1.859375 -4.171875 -4.171875 v -15.65625 c 0 -2.3125 1.859375 -4.171875 4.171875 -4.171875 z m 0 0" fill="url(#l)"/>
    </g>
    <g stroke="#ffffff" stroke-linecap="round">
        <path d="m 35 48 c 0 2.761719 -2.238281 5 -5 5 s -5 -2.238281 -5 -5 s 2.238281 -5 5 -5 s 5 2.238281 5 5 z m 0 0" fill="#ffffff" stroke-linejoin="round" stroke-width="4"/>
        <path d="m 60 78 h 8 v 8 h -8 z m 0 0" fill="#ffffff" stroke-linejoin="round" stroke-width="4"/>
        <path d="m 69 48 l -9 -5 v 10 z m 0 0" fill="#ffffff" stroke-linejoin="round" stroke-width="4"/>
        <path d="m 26 79 l 4 4 l 4 -4" fill="none" stroke-width="8"/>
        <path d="m 91 82 h 14.339844" fill="none" stroke-width="4"/>
        <path d="m 100.496094 87 l 5 -5 l -5 -5" fill="none" stroke-linejoin="round" stroke-width="4"/>
    </g>
    <path d="m 97 52 c 0 1.65625 -1.34375 3 -3 3 s -3 -1.34375 -3 -3 s 1.34375 -3 3 -3 s 3 1.34375 3 3 z m 0 0" fill="#ffffff"/>
    <path d="m 105 52 c 0 1.65625 -1.34375 3 -3 3 s -3 -1.34375 -3 -3 s 1.34375 -3 3 -3 s 3 1.34375 3 3 z m 0 0" fill="#ffffff"/>
    <path d="m 97 44 c 0 1.65625 -1.34375 3 -3 3 s -3 -1.34375 -3 -3 s 1.34375 -3 3 -3 s 3 1.34375 3 3 z m 0 0" fill="#ffffff"/>
    <path d="m 105 44 c 0 1.65625 -1.34375 3 -3 3 s -3 -1.34375 -3 -3 s 1.34375 -3 3 -3 s 3 1.34375 3 3 z m 0 0" fill="#ffffff"/>
</svg>
