<svg height="128" width="128" xmlns="http://www.w3.org/2000/svg"><linearGradient id="a" gradientUnits="userSpaceOnUse" x1="8.494" x2="66" y1="74" y2="74"><stop offset="0" stop-color="#1a5fb4"/><stop offset=".085" stop-color="#62a0ea"/><stop offset=".199" stop-color="#1a5fb4"/><stop offset="1" stop-color="#1a5fb4"/></linearGradient><linearGradient id="b" gradientTransform="matrix(-1 0 0 1 129.874 -172)" gradientUnits="userSpaceOnUse" x1="66" x2="44" y1="234" y2="234"><stop offset="0" stop-color="#fff"/><stop offset="1" stop-color="#648cf9" stop-opacity="0"/></linearGradient><path d="M16.496 30a7.98 7.98 0 0 0-8 8v72c0 4.434 3.566 8 8 8H104V30zm0 0" fill="url(#a)"/><path d="M16.496 28a7.98 7.98 0 0 0-8 8v72c0 4.434 3.566 8 8 8H66V28zm0 0" fill="#3584e4"/><path d="M27 76v5h5m-1-4v8m5-9h3v4h-3zm-2 4h6v4h-6zm10-4h4v4h-4v4h5m6 0h2v-8h-5v4h5" style="fill:none;stroke:#fff;stroke-width:2"/><path d="M20 98h32v8H20zm0-8h20v4H20zm0 0" fill="#99c1f1"/><path d="M64.25 28v88H104v-12h16V40h-16V28zm0 0" fill="#3584e4"/><path d="M72 72h16v16H72zm0 0" fill="#fff"/><path d="M88 72h16v16H88Zm0 0" fill="#fff" style="opacity:.8"/><path d="M72 88h16v16H72Zm0 0" fill="#62a0ea"/><path d="M97.875 28h-34v88h34zm0 0" fill="url(#b)"/><path d="m60 116-.125-88h8L68 116Z" fill="#fff" style="fill:#6bf9f4;fill-opacity:1"/><path d="m62 116-.125-88h4L66 116Z" fill="#fff"/><path d="M88 88h16v16H88zm0 0" fill="#99c1f1"/><path d="M104 104h16v2h-16zm0 0" fill="#1a5fb4"/><path d="m30.777 38.637 8.586 8.586a3.925 3.925 0 0 1 0 5.554l-8.586 8.586a3.925 3.925 0 0 1-5.554 0l-8.586-8.586a3.925 3.925 0 0 1 0-5.554l8.586-8.586a3.925 3.925 0 0 1 5.554 0zm0 0" fill="#c64600"/><path d="m44.777 38.637 8.586 8.586a3.925 3.925 0 0 1 0 5.554l-8.586 8.586a3.925 3.925 0 0 1-5.554 0l-8.586-8.586a3.925 3.925 0 0 1 0-5.554l8.586-8.586a3.925 3.925 0 0 1 5.554 0zm0 0" fill="#f5c211"/><path d="m35 42.86-4.363 4.363a3.918 3.918 0 0 0 0 5.554L35 57.141l4.363-4.364a3.918 3.918 0 0 0 0-5.554zm0 0" fill="#ff7800"/></svg>