<svg xmlns="http://www.w3.org/2000/svg" xmlns:xlink="http://www.w3.org/1999/xlink" width="128" height="128" version="1.0" enable-background="new"><defs><linearGradient id="d"><stop offset="0" stop-color="#f6f5f4"/><stop offset="1" stop-color="#e9e7e4"/></linearGradient><linearGradient id="b"><stop offset="0" stop-color="#dc8add"/><stop offset="1" stop-color="#813d9c"/></linearGradient><linearGradient id="c"><stop offset="0" stop-color="#fff"/><stop offset=".4" stop-color="#fff"/><stop offset="1" stop-color="#edece9"/></linearGradient><linearGradient id="a"><stop offset="0" stop-color="#fff"/><stop offset="1" stop-color="#edece9"/></linearGradient><filter id="f" color-interpolation-filters="sRGB"><feBlend mode="multiply" in2="BackgroundImage"/></filter><filter id="g" color-interpolation-filters="sRGB"><feBlend mode="multiply" in2="BackgroundImage"/></filter><linearGradient xlink:href="#d" id="e" x1="63.109" y1="65.067" x2="72.603" y2="21.374" gradientUnits="userSpaceOnUse"/></defs><path style="marker:none" d="M64.213 4.678c-2.663-.009-5.335 1.319-8.025 4.01L16 48v68h96V48L72.187 8.687c-2.656-2.656-5.311-4-7.974-4.01z" fill="#9a9996"/><path style="marker:none" fill="url(#e)" d="M24 16h80v88H24z"/><path style="marker:none" d="M16 48v68.001l96-.001V48L64 92z" fill="#d0d0cd"/><path style="marker:none" d="M16 116h96L72.187 76.687c-5.312-5.312-10.618-5.381-16 0z" fill="#deddda"/><path d="M69.953 251.55a28.557 28.557 0 0 0-7.01 18.714c.003 6.37 2.74 13.73 6.663 18.748h37.874z" style="marker:none" transform="translate(-2.122 -187.612) scale(1.05052)" opacity=".15" filter="url(#f)" enable-background="new"/><path style="marker:none" d="M64.213 72.678c-2.663-.009-5.335 1.319-8.025 4.01L16 116h2.045l38.142-37.313c5.382-5.381 10.688-5.312 16 0L109.975 116H112L72.187 76.687c-2.656-2.656-5.311-4-7.974-4.01z" fill="#edeceb"/><g transform="matrix(1.17069 0 0 1.17069 -13.698 -11.07)"><path d="M117.574 90.426A25.574 25.574 0 0 1 92 116a25.574 25.574 0 0 1-25.574-25.574A25.574 25.574 0 0 1 92 64.852a25.574 25.574 0 0 1 25.574 25.574z" style="marker:none" fill="#613583" enable-background="new"/><rect style="marker:none" width="47.738" height="48.59" x="68.131" y="65.705" rx="23.869" ry="23.869" fill="#d5d3cf" enable-background="new"/><path style="marker:none" d="M118.476 89.574A26.476 26.476 0 0 1 92 116.05a26.476 26.476 0 0 1-26.476-26.476A26.476 26.476 0 0 1 92 63.098a26.476 26.476 0 0 1 26.476 26.476z" fill="#9141ac" enable-background="new"/><circle r="21.28" style="marker:none" cx="92" cy="89.574" fill="#f6f5f4" enable-background="new"/><path d="M92 89.574l11.082-11.935" fill="#949390" fill-rule="evenodd" stroke="#949390" stroke-width=".854" stroke-linecap="round" enable-background="new"/><path d="M92 89.574l-5.967 15.344" fill="none" stroke="#ed333b" stroke-width=".854" stroke-linecap="round" enable-background="new"/><path transform="matrix(.89735 0 0 .89735 9.889 -150.802)" d="M91.494 268.07l-9.513-9.52" fill="none" stroke="#68676b" stroke-width="3.808" stroke-linecap="round" filter="url(#g)" enable-background="new"/><circle r="2.557" cy="119.282" cx="47.532" style="marker:none" transform="rotate(-24.04)" color="#000" overflow="visible" fill="#11100f" enable-background="accumulate"/><circle r=".854" style="marker:none" cx="92.012" cy="89.574" color="#000" overflow="visible" fill="#131c1a" enable-background="accumulate"/></g></svg>