<?xml version="1.0" encoding="UTF-8"?>
<svg height="128px" viewBox="0 0 128 128" width="128px" xmlns="http://www.w3.org/2000/svg" xmlns:xlink="http://www.w3.org/1999/xlink">
    <linearGradient id="a" gradientTransform="matrix(1.008894 0 0 1.00892 -0.568699 -2.626877)" gradientUnits="userSpaceOnUse" x1="8" x2="120" y1="236" y2="236">
        <stop offset="0" stop-color="#498fe5"/>
        <stop offset="0.186734" stop-color="#1a5fb4" stop-opacity="0.984314"/>
        <stop offset="0.392857" stop-color="#2579e0" stop-opacity="0.968627"/>
        <stop offset="0.617036" stop-color="#5596e6" stop-opacity="0.956863"/>
        <stop offset="0.855136" stop-color="#134583"/>
        <stop offset="1" stop-color="#2677df"/>
    </linearGradient>
    <linearGradient id="b" gradientTransform="matrix(0.659952 0.659952 -0.659952 0.659952 176.852005 -137.325138)" gradientUnits="userSpaceOnUse" x1="139.477295" x2="25.039328" y1="259.588104" y2="189.370285">
        <stop offset="0" stop-color="#59cde7"/>
        <stop offset="1" stop-color="#1c71d8"/>
    </linearGradient>
    <path d="m 64 4 c 30.929688 0 56 25.070312 56 56 v 8 c 0 30.929688 -25.070312 56 -56 56 s -56 -25.070312 -56 -56 v -8 c 0 -30.929688 25.070312 -56 56 -56 z m 0 0" fill="url(#a)"/>
    <path d="m 103.59375 99.59375 c -21.867188 21.875 -57.320312 21.875 -79.191406 0 c -21.871094 -21.867188 -21.871094 -57.320312 0 -79.191406 s 57.324218 -21.871094 79.191406 0 c 21.875 21.871094 21.875 57.324218 0 79.191406 z m 0 0" fill="url(#b)"/>
    <path d="m 64 21.742188 c -10.238281 0 -20.476562 3.90625 -28.285156 11.714843 c -15.621094 15.621094 -15.621094 40.953125 0 56.574219 c 15.621094 15.617188 40.949218 15.617188 56.570312 0 c 15.621094 -15.621094 15.621094 -40.953125 0 -56.574219 c -7.808594 -7.808593 -18.046875 -11.714843 -28.285156 -11.714843 z m -10.152344 20.25 c 1.027344 -0.027344 2.085938 0.214843 3.085938 0.773437 l 25 14 c 4.085937 2.292969 4.085937 8.175781 0 10.46875 l -25 14 c -4 2.238281 -8.933594 -0.652344 -8.933594 -5.234375 v -28 c 0 -3.4375 2.777344 -5.921875 5.847656 -6.007812 z m 0 0" fill="#1a5fb4"/>
    <g fill="#ffffff">
        <path d="m 64 19.742188 c -10.238281 0 -20.476562 3.90625 -28.285156 11.714843 c -15.621094 15.621094 -15.621094 40.953125 0 56.574219 c 15.621094 15.617188 40.949218 15.617188 56.570312 0 c 15.621094 -15.621094 15.621094 -40.953125 0 -56.574219 c -7.808594 -7.808593 -18.046875 -11.714843 -28.285156 -11.714843 z m -10.152344 20.25 c 1.027344 -0.027344 2.085938 0.214843 3.085938 0.773437 l 25 14 c 4.085937 2.292969 4.085937 8.175781 0 10.46875 l -25 14 c -4 2.238281 -8.933594 -0.652344 -8.933594 -5.234375 v -28 c 0 -3.4375 2.777344 -5.921875 5.847656 -6.007812 z m 0 0"/>
        <path d="m 8.023438 58.742188 c -0.261719 14.664062 5.191406 29.40625 16.378906 40.59375 c 21.871094 21.875 57.324218 21.875 79.191406 0 c 11.191406 -11.1875 16.644531 -25.929688 16.382812 -40.59375 c -0.25 13.996093 -5.699218 27.914062 -16.382812 38.59375 c -21.867188 21.875 -57.320312 21.875 -79.191406 0 c -10.679688 -10.679688 -16.128906 -24.597657 -16.378906 -38.59375 z m 0 0" fill-opacity="0.2"/>
    </g>
</svg>
