<svg xmlns="http://www.w3.org/2000/svg" xmlns:xlink="http://www.w3.org/1999/xlink" width="128" height="128" version="1.0"><defs><linearGradient id="c"><stop offset="0" stop-color="#241f31"/><stop offset="1" stop-color="#3d3846"/></linearGradient><linearGradient id="a"><stop offset="0" stop-color="#e01b24"/><stop offset="1" stop-color="#f8e45c"/></linearGradient><linearGradient id="b"><stop offset="0" stop-color="#2ec27e"/><stop offset="1" stop-color="#57e389" stop-opacity="0"/></linearGradient><linearGradient xlink:href="#c" id="e" x1="127.947" y1="224.053" x2="91.947" y2="188.053" gradientUnits="userSpaceOnUse" gradientTransform="matrix(1.04757 0 0 1.04757 -21.678 .634)"/><clipPath clipPathUnits="userSpaceOnUse" id="d"><rect ry="56.25" y="179.75" x="7.75" height="114.375" width="112.5" opacity=".1" fill="#3584e4" stroke-width="4"/></clipPath></defs><g transform="matrix(1.06667 0 0 1.06667 -4.267 -187.733)" clip-path="url(#d)" stroke-width=".938"><path d="M115.962 206a60 60 0 0 1 0 60L64 236z" fill="#3584e4"/><path d="M115.962 266A60 60 0 0 1 64 296v-60z" fill="#a347ba"/><path d="M64 176a60 60 0 0 1 51.962 30L64 236z" fill="#33d17a"/><path d="M12.038 206A60 60 0 0 1 64 176v60z" fill="#f6d32d"/><path d="M12.038 266a60 60 0 0 1 0-60L64 236z" fill="#ff7800"/><path d="M64 296a60 60 0 0 1-51.962-30L64 236z" fill="#ed333b"/></g><path d="M4.049 64.994A60 60 0 0 0 4 66a60 60 0 0 0 60 60 60 60 0 0 0 60-60 60 60 0 0 0-.035-1.006A60 60 0 0 1 64 124 60 60 0 0 1 4.049 64.994z" opacity=".2"/><path style="marker:none" d="M114.563 14a9.43 9.43 0 0 0-6.704 2.809l-.004-.006-9.699 9.699-6.06-6.063c-1.415-1.414-2.83 0-2.83 0l-4.489 4.489s-1.414 1.414 0 2.828l6.735 6.732L56 70c-3 4.5-1.5 9-6 13.5l4.5 4.5c4.5-4.5 10.583-2.95 13.5-6l35.512-35.512 6.722 6.723c1.415 1.414 2.829 0 2.829 0l4.488-4.488c1.414-1.415 0-2.828 0-2.828l-6.063-6.063 9.643-9.643.055-.054A9.427 9.427 0 0 0 114.563 14z" opacity=".1"/><path d="M93.46 30.54L56 68c-3 4.5-1.5 9-6 13.5l4.5 4.5c4.5-4.5 10.583-2.95 13.5-6l37.46-37.46z" style="marker:none" opacity=".6" fill="#fff"/><path d="M59 69.5L93.5 35" opacity=".6" fill="none" stroke="#fff" stroke-width="6" stroke-linecap="round"/><path d="M59 67.163l34.5-34.5" opacity=".6" fill="none" stroke="#fff" stroke-width="3" stroke-linecap="round"/><path d="M112.083 185.333a12.572 12.572 0 0 0-8.937 3.744l-.006-.006-12.93 12.931-8.084-8.083c-1.885-1.885-3.77 0-3.77 0l-5.985 5.985s-1.886 1.885 0 3.77l33.941 33.942c1.886 1.886 3.771 0 3.771 0l5.985-5.984c1.885-1.886 0-3.771 0-3.771l-8.083-8.083 12.857-12.857.074-.074-.002-.002a12.57 12.57 0 0 0 3.74-8.94c0-6.944-5.628-12.572-12.57-12.572z" style="line-height:normal;font-variant-ligatures:normal;font-variant-position:normal;font-variant-caps:normal;font-variant-numeric:normal;font-variant-alternates:normal;font-feature-settings:normal;text-indent:0;text-align:start;text-decoration-line:none;text-decoration-style:solid;text-decoration-color:#000;text-transform:none;text-orientation:mixed;white-space:normal;shape-padding:0;isolation:auto;mix-blend-mode:normal;solid-color:#000;solid-opacity:1" color="#000" font-weight="400" font-family="sans-serif" overflow="visible" fill="url(#e)" fill-rule="evenodd" transform="matrix(.75 0 0 .75 30.5 -127)"/></svg>