<?xml version="1.0" encoding="UTF-8"?>
<svg height="128px" viewBox="0 0 128 128" width="128px" xmlns="http://www.w3.org/2000/svg" xmlns:xlink="http://www.w3.org/1999/xlink">
    <radialGradient id="a" cx="6.258836" cy="209.612839" gradientTransform="matrix(1.602484 0 0 1.385332 53.970314 -258.687576)" gradientUnits="userSpaceOnUse" r="50.829514">
        <stop offset="0" stop-color="#f88073"/>
        <stop offset="0.381631" stop-color="#ed333b"/>
        <stop offset="0.763262" stop-color="#e01b24"/>
        <stop offset="1" stop-color="#c91820"/>
    </radialGradient>
    <radialGradient id="b" cx="6.258836" cy="209.612839" gradientTransform="matrix(1.730063 0 0 1.688619 59.171822 -316.260529)" gradientUnits="userSpaceOnUse" r="50.829514">
        <stop offset="0" stop-opacity="0"/>
        <stop offset="0.8" stop-opacity="0"/>
        <stop offset="1" stop-opacity="0.215036"/>
    </radialGradient>
    <radialGradient id="c" cx="70" cy="70" gradientUnits="userSpaceOnUse" r="60">
        <stop offset="0" stop-color="#6a131d"/>
        <stop offset="1" stop-color="#6a131d" stop-opacity="0"/>
    </radialGradient>
    <filter id="d" height="100%" width="100%" x="0%" y="0%">
        <feColorMatrix in="SourceGraphic" type="matrix" values="0 0 0 0 1 0 0 0 0 1 0 0 0 0 1 0 0 0 1 0"/>
    </filter>
    <mask id="e">
        <g filter="url(#d)">
            <rect fill-opacity="0.4" height="128" width="128"/>
        </g>
    </mask>
    <clipPath id="f">
        <rect height="152" width="192"/>
    </clipPath>
    <mask id="g">
        <g filter="url(#d)">
            <rect fill-opacity="0.3" height="128" width="128"/>
        </g>
    </mask>
    <clipPath id="h">
        <rect height="152" width="192"/>
    </clipPath>
    <linearGradient id="i" gradientUnits="userSpaceOnUse" x1="55.823467" x2="67.148338" y1="17.71727" y2="17.71727">
        <stop offset="0" stop-color="#26a269"/>
        <stop offset="1" stop-color="#33d17a" stop-opacity="0"/>
    </linearGradient>
    <linearGradient id="j" gradientUnits="userSpaceOnUse">
        <stop offset="0" stop-color="#33d17a"/>
        <stop offset="1" stop-color="#26a269"/>
    </linearGradient>
    <radialGradient id="k" cx="49.988583" cy="183.141083" gradientTransform="matrix(2.640409 -0.635159 0.105145 0.437096 -96.300438 -40.036572)" r="12.205009" xlink:href="#j"/>
    <radialGradient id="l" cx="73.865631" cy="175.690613" gradientTransform="matrix(1.924012 0.737729 -0.183483 0.478528 -37.137781 -132.251106)" r="11.511721" xlink:href="#j"/>
    <path d="m 124 64 c 0 33.136719 -26.863281 60 -60 60 s -60 -26.863281 -60 -60 s 26.863281 -60 60 -60 s 60 26.863281 60 60 z m 0 0" fill="url(#a)"/>
    <path d="m 130 70 c 0 33.136719 -26.863281 60 -60 60 s -60 -26.863281 -60 -60 s 26.863281 -60 60 -60 s 60 26.863281 60 60 z m 0 0" fill="url(#b)" stroke="url(#c)" stroke-linecap="round" stroke-linejoin="round" stroke-width="2" transform="matrix(1 0 0 1 -6 -6)"/>
    <g clip-path="url(#f)" mask="url(#e)" transform="matrix(1 0 0 1 -8 -16)">
        <path d="m 99.152344 62.847656 l -32.546875 16.433594 c -0.023438 0.011719 -0.042969 0.023438 -0.066407 0.03125 l -0.074218 0.039062 c -1.085938 0.566407 -2.082032 1.296876 -2.949219 2.164063 c -4.683594 4.6875 -4.683594 12.28125 0 16.96875 c 4.6875 4.683594 12.28125 4.683594 16.96875 0 c 0.867187 -0.867187 1.597656 -1.863281 2.164063 -2.953125 l 0.011718 -0.023438 c 0.046875 -0.085937 0.089844 -0.171874 0.128906 -0.261718 z m 0 0"/>
    </g>
    <path d="m 72.484375 63.515625 c 4.6875 4.683594 4.6875 12.285156 0 16.96875 c -4.683594 4.6875 -12.285156 4.6875 -16.96875 0 c -4.6875 -4.683594 -4.6875 -12.285156 0 -16.96875 c 4.683594 -4.6875 12.285156 -4.6875 16.96875 0 z m 0 0" fill="#ffffff"/>
    <path d="m 91.152344 44.847656 l -32.6875 16.503906 l 7.230468 8.953126 l 8.953126 7.230468 z m 0 0" fill="#ffffff"/>
    <path d="m 67.394531 68.605469 c 1.875 1.875 1.875 4.914062 0 6.789062 s -4.914062 1.875 -6.789062 0 s -1.875 -4.914062 0 -6.789062 s 4.914062 -1.875 6.789062 0 z m 0 0" fill="#241f31"/>
    <g clip-path="url(#h)" mask="url(#g)" transform="matrix(1 0 0 1 -8 -16)">
        <path d="m 62.621094 20.722656 c -8.429688 2.757813 -15.136719 2.136719 -20.222656 14.660156 c 6.792968 -5.554687 16.167968 -6.34375 21.910156 -8.355468 c -2.644532 13.375 6.210937 18.035156 9.554687 20.738281 c -2.34375 -9.613281 -2.261719 -16.496094 3.488281 -19.980469 c 9.734376 9.90625 16.667969 6.765625 21.800782 5.324219 c -4.625 -1.921875 -9.484375 -1.933594 -16.25 -10.015625 c -0.386719 -0.460938 11.464844 1.148438 14.222656 2.421875 c -1.691406 -2.574219 -13.652344 -5.742187 -13.851562 -5.996094 c -3.039063 -0.96875 -11.265626 -1.921875 -20.652344 1.203125 z m 0 0"/>
    </g>
    <path d="m 54.621094 3.253906 c -4.058594 0.859375 -15.136719 1.605469 -20.222656 14.128906 c 6.792968 -5.554687 16.167968 -6.34375 21.910156 -8.355468 c -2.644532 13.375 6.210937 17.035156 9.554687 19.738281 c -2.34375 -9.613281 -2.261719 -15.496094 3.488281 -18.980469 c 9.734376 9.90625 17.886719 6.175782 23.015626 4.734375 c -4.621094 -1.921875 -10.699219 -1.34375 -17.464844 -9.425781 c -0.386719 -0.460938 11.464844 3.148438 14.222656 4.421875 c -1.691406 -2.574219 -9.542969 -5.046875 -13.851562 -6.464844 c -4.308594 -1.417969 -14.671876 -1.058593 -20.652344 0.203125 z m 0 0" fill="#33d17a"/>
    <path d="m 66.859375 1.714844 l -2.53125 -0.835938 s -3.246094 3.128906 -3.714844 3.523438 c -0.808593 0.691406 6.738281 1.816406 7.671875 1.316406 l -0.800781 -3.242188 z m 0 0" fill="#26a269"/>
    <path d="m 56.308594 9.027344 c -2.644532 13.375 6.210937 17.035156 9.554687 19.738281 c -2.34375 -9.613281 -2.261719 -15.496094 3.488281 -18.980469 c -4.058593 -2.054687 -9.566406 -7.082031 -13.042968 -0.757812 z m 0 0" fill="url(#i)"/>
    <path d="m 54.621094 3.253906 c -4.058594 0.859375 -15.136719 1.605469 -20.222656 14.128906 c 6.792968 -5.554687 16.167968 -6.34375 21.910156 -8.355468 c -0.40625 -1.972656 6.871094 -6.234375 -1.6875 -5.773438 z m 0 0" fill="url(#k)"/>
    <path d="m 69.351562 9.785156 c 9.734376 9.90625 17.886719 6.175782 23.015626 4.734375 c -4.621094 -1.921875 -10.699219 -1.34375 -17.464844 -9.425781 c -2.96875 -1.351562 -5.742188 0.160156 -5.550782 4.691406 z m 0 0" fill="url(#l)"/>
</svg>
