<svg xmlns="http://www.w3.org/2000/svg" xmlns:xlink="http://www.w3.org/1999/xlink" width="128" height="128" version="1.0"><defs><linearGradient id="a"><stop offset="0" stop-color="#f7c54c"/><stop offset=".03" stop-color="#f9f06b"/><stop offset=".057" stop-color="#f5e35a" stop-opacity=".996"/><stop offset=".126" stop-color="#e5a50a" stop-opacity=".984"/><stop offset=".416" stop-color="#ebb517" stop-opacity=".984"/><stop offset=".455" stop-color="#f2cf65" stop-opacity=".984"/><stop offset=".494" stop-color="#c09610" stop-opacity=".984"/><stop offset=".494" stop-color="#f4d676" stop-opacity=".988"/><stop offset=".532" stop-color="#f4d87a" stop-opacity=".988"/><stop offset=".593" stop-color="#eec01e" stop-opacity=".988"/><stop offset=".877" stop-color="#f6d32d"/><stop offset=".954" stop-color="#f9f06b"/><stop offset="1" stop-color="#e5a50a" stop-opacity=".933"/></linearGradient><linearGradient xlink:href="#a" id="c" x1="12.098" y1="281.262" x2="117.203" y2="281.262" gradientUnits="userSpaceOnUse"/><linearGradient xlink:href="#a" id="b" gradientUnits="userSpaceOnUse" x1="12.098" y1="281.262" x2="117.203" y2="281.262"/></defs><g transform="translate(0 -172)"><rect style="marker:none" width="52" height="92" x="12" y="196" rx="8" ry="8" fill="url(#b)"/><rect ry="8" rx="8" y="196" x="64" height="92" width="52" style="marker:none" fill="url(#c)"/><rect ry="8" rx="8" y="184" x="12" height="94" width="52" style="marker:none" fill="#f9f06b"/><rect style="marker:none" width="52" height="94" x="64" y="184" rx="8" ry="8" fill="#f9f06b"/><g fill="#e5a50a"><path d="M38.5 213l-2.125 1.875.25 32.25c0 1.19 1.125 2.375 1.125 2.375l3.125-2.25s-1.5-.93-1.5-2z" style="marker:none"/><path d="M21.688 220.625l2.25 3h28.75l-4.407-4.406-2.125 2.125zM27.438 226l.125 14.125 3.187-1.625v-10.938zM44.063 224.375L49 227l-2.063 1.25v7.063l.938 1.062-2.313 2.313-1.374-2.125z" style="marker:none"/><rect ry=".63" rx=".63" y="227.375" x="28.563" height="1.563" width="17.75" style="marker:none"/><rect style="marker:none" width="17.75" height="1.563" x="28.563" y="231.438" rx=".63" ry=".63"/><rect ry=".63" rx=".63" y="235.063" x="28.563" height="1.563" width="17.75" style="marker:none"/><path style="marker:none" d="M22 241.313l3.938 3.937 1.687-1.438h27.75l-4.406-4.406-2.125 2.125z"/></g><g fill="#e5a50a"><path d="M87.75 214.75c0 10.901-.548 19.874-11.625 26.5l.438 2.688C85.195 239.841 90 232.93 90 220.75l2.188-.5z" style="marker:none"/><path style="marker:none" d="M75.688 225.063l1.25 1.937H102l-4.406-4.406-1.938 2.562zM90.125 228.125c0 8.528 9.563 15.875 9.563 15.875l2.437-3.875S91.5 235.003 91.5 228.437zM92.25 218.563c1.303 1.202 3.065 2.176 3.125 4l2.5-1.875c-1.005-1.483-2.727-2.071-4.375-2.75z"/></g><path style="marker:none" d="M72 184c-4.432 0-8 3.568-8 8v78c0 4.432 3.568 8 8 8h2c-4.432 0-9-3.568-9-8v-78c0-4.432 4.568-8 9-8z" fill="#fbf5a1"/><path d="M56 184c4.432 0 8 3.568 8 8v78c0 4.432-3.568 8-8 8h-2c4.432 0 9-3.568 9-8v-78c0-4.432-4.568-8-9-8z" style="marker:none" fill="#f7d782" fill-opacity=".95"/></g></svg>