<svg xmlns="http://www.w3.org/2000/svg" xmlns:xlink="http://www.w3.org/1999/xlink" width="128" height="128" version="1.0"><defs><linearGradient id="b"><stop offset="0" stop-color="#8c839c"/><stop offset="1" stop-color="#3d3846"/></linearGradient><linearGradient id="a"><stop offset="0" stop-color="#fff"/><stop offset="1" stop-color="#fff" stop-opacity="0"/></linearGradient><radialGradient xlink:href="#a" id="d" cx="86" cy="218" fx="86" fy="218" r="20" gradientUnits="userSpaceOnUse"/><radialGradient xlink:href="#b" id="c" cx="30.493" cy="197.655" fx="30.493" fy="197.655" r="31.25" gradientTransform="matrix(1.50912 0 0 2.10236 -15.525 -227.004)" gradientUnits="userSpaceOnUse"/></defs><g transform="translate(0 -172)"><path d="M32.236 180.93l-.017 9.25-7.194 5.811-.002.002a28.75 28.75 0 0 0-3.488 2.981l-13.082 7.338-.234 3.619 4.75 9.5 11.613-3.94a9.75 9.75 0 0 0 7.637 3.69 9.75 9.75 0 0 0 9.715-9.059l.011-.004.274 9.313c-.007 4.634-3.153 8.214-7.663 9.277-4.025.948-5.303-.288-10.138 1.684-6.647 2.71-11.466 6.678-11.914 13.59L12.469 248l9.996 10C17.878 258 12 264 12 264v4h58v-4s1-6-9.74-6l10.459-10.194V219.18c0-15.878-12.872-28.75-28.75-28.75-.17.007-.34.015-.51.025a9.251 9.251 0 0 0-.225-2.341 9.25 9.25 0 0 0-8.998-7.184z" style="marker:none"/><path style="marker:none" d="M32.033 178.062l-.017 9.25-23.563 19 4.75 9.5 11.613-3.94a9.75 9.75 0 0 0 7.637 3.69c5.113-.006 9.184-3.96 9.547-9.059v-.004 9.313c-.007 4.634-2.7 8.214-7.21 9.276-4.024.948-5.303-.287-10.138 1.684-7.348 2.996-12.147 9.275-12.148 17.21l10.195 10.399C17.052 254.38 12 258.625 12 264h58c0-6.005-4.498-9.62-9.505-9.62l10.458-10.193v-28.625c0-15.879-12.872-28-28.75-28-.17.007-.34.015-.51.025a9.251 9.251 0 0 0-.224-2.342c-.962-4.197-5.13-7.175-9.436-7.183z" fill="url(#c)"/><path style="marker:none" d="M32.47 177.313l-.005 2.921a9.243 9.243 0 0 1 5.004 6.262c.174.768.25 1.555.224 2.342.17-.01.34-.018.51-.025 15.878 0 28.75 12.871 28.75 28.75v28.625l-6.457 8.193 10.457-10.193v-28.625c0-15.879-12.872-28.75-28.75-28.75-.17.007-.34.015-.51.025a9.251 9.251 0 0 0-.224-2.342 9.25 9.25 0 0 0-8.998-7.183zm-14.558 78.265c-.6.32-1.166.694-1.687 1.12.793-.2 1.619-.317 2.474-.317z" fill="#fff" fill-opacity=".071"/><path d="M85.821 206.371c-12.313 0-22.03 9.982-22.03 22.295a22.295 22.295 0 0 0 15.201 21.115l-6 27.595-16.897 6.37v4.372l59.905.125V284l-17.528-6.624-5.56-27.602a22.294 22.294 0 0 0 15.203-21.108c0-12.313-9.981-22.295-22.294-22.295z" style="marker:none" fill="#9a9996"/><path style="marker:none" d="M85.998 202.084c-12.215 0-22.118 9.902-22.118 22.117a22.119 22.119 0 0 0 15.08 20.948L64 276c-3.716 0-7.905 4.207-7.905 7.923L116 284c0-3.716-4.284-8-8-8l-14.968-30.858a22.118 22.118 0 0 0 15.083-20.94c0-12.216-9.902-22.118-22.117-22.118z" fill="#deddda"/><circle style="marker:none" cx="86" cy="224" r="20" fill="url(#d)"/><path style="marker:none" d="M116 284c0-3.465-4.198-6-8-6H64c-4.34 0-7.905 2.122-7.905 5.923 0-3.805 3.835-7.923 7.905-7.923h44c4.244 0 8 4.007 8 8z" fill="#f6f5f4"/><path style="marker:none" d="M64.097 224.078A22 22 0 0 0 64 226a22 22 0 0 0 22 22 22 22 0 0 0 22-22 22 22 0 0 0-.097-1.904A22 22 0 0 1 86 244.174a22 22 0 0 1-21.903-20.096z" fill="#c0bfbc"/></g></svg>