<?xml version="1.0" encoding="UTF-8"?>
<svg height="128px" viewBox="0 0 128 128" width="128px" xmlns="http://www.w3.org/2000/svg" xmlns:xlink="http://www.w3.org/1999/xlink">
    <linearGradient id="a" gradientUnits="userSpaceOnUse" x1="29.692505" x2="45.641838" y1="101.648793" y2="97.183766">
        <stop offset="0" stop-color="#5e5c64"/>
        <stop offset="0.5" stop-color="#77767b"/>
        <stop offset="1" stop-color="#5e5c64"/>
    </linearGradient>
    <linearGradient id="b" gradientUnits="userSpaceOnUse" x1="4.000027" x2="4.000027" y1="59.869954" y2="75.869954">
        <stop offset="0" stop-color="#5e5c64"/>
        <stop offset="0.5" stop-color="#c0bfbc"/>
        <stop offset="1" stop-color="#5e5c64"/>
    </linearGradient>
    <linearGradient id="c" gradientUnits="userSpaceOnUse">
        <stop offset="0" stop-color="#c01c28"/>
        <stop offset="0.25" stop-color="#e01b24"/>
        <stop offset="0.5" stop-color="#f66151"/>
        <stop offset="0.75" stop-color="#c01c28"/>
        <stop offset="1" stop-color="#a51d2d"/>
    </linearGradient>
    <linearGradient id="d" gradientTransform="matrix(1 0 0 1.052632 -0.999973 -178.452303)" x1="32" x2="32" xlink:href="#c" y1="192" y2="276"/>
    <linearGradient id="e" gradientUnits="userSpaceOnUse" x1="108.000027" x2="108.000027" y1="51.868165" y2="83.868165">
        <stop offset="0" stop-color="#3d3846"/>
        <stop offset="0.5" stop-color="#c0bfbc"/>
        <stop offset="1" stop-color="#5e5c64"/>
    </linearGradient>
    <linearGradient id="f" gradientUnits="userSpaceOnUse" x1="64.000027" x2="64.000027" y1="24.00002" y2="112.000035">
        <stop offset="0" stop-color="#deddda"/>
        <stop offset="0.25" stop-color="#deddda"/>
        <stop offset="0.5" stop-color="#ffffff"/>
        <stop offset="0.75" stop-color="#c0bfbc"/>
        <stop offset="1" stop-color="#9a9996"/>
    </linearGradient>
    <linearGradient id="g" gradientTransform="matrix(-1 0 0 1 209.000027 -166.99998)" x1="97" x2="97" xlink:href="#c" y1="191" y2="279"/>
    <path d="m 29 69.128907 h 11 l 7 24 h -11 z m 0 0" fill="#5e5c64" stroke="#3d3846" stroke-linecap="round" stroke-linejoin="round" stroke-width="6"/>
    <path d="m 28 82.128906 c -2 0 -3.441406 1.917969 -2.878906 3.839844 l 7 24 c 0.371094 1.28125 1.546875 2.160156 2.878906 2.160156 h 11 c 2 0 3.441406 -1.917968 2.882812 -3.839844 l -7 -24 c -0.375 -1.28125 -1.550781 -2.160156 -2.882812 -2.160156 z m 0 0" fill="url(#a)"/>
    <path d="m 30.910156 52 c -0.214844 0.007812 -0.429687 0.035156 -0.636718 0.089844 l -20 5 c -1.335938 0.332031 -2.273438 1.53125 -2.273438 2.910156 v 16 c 0 1.375 0.9375 2.574219 2.273438 2.910156 l 20 5 c 1.890624 0.472656 3.726562 -0.960937 3.726562 -2.910156 v -26 c 0 -1.691406 -1.398438 -3.050781 -3.089844 -3 z m 0 0" fill="url(#b)"/>
    <g fill-opacity="0.390863">
        <path d="m 8 59.871094 h 12 v 2 h -12 z m 0 0"/>
        <path d="m 8 65.871094 h 12 v 4 h -12 z m 0 0"/>
        <path d="m 8 73.871094 h 12 v 2 h -12 z m 0 0"/>
    </g>
    <path d="m 20 48 h 26 c 3.3125 0 6 2.6875 6 6 v 28 c 0 3.3125 -2.6875 6 -6 6 h -26 c -3.3125 0 -6 -2.6875 -6 -6 v -28 c 0 -3.3125 2.6875 -6 6 -6 z m 0 0" fill="url(#d)"/>
    <path d="m 96.941406 52.996094 c -1.632812 0.035156 -2.941406 1.367187 -2.941406 3 v 24 c 0 2.125 2.144531 3.574218 4.113281 2.785156 l 20 -8 c 1.140625 -0.453125 1.886719 -1.554688 1.886719 -2.785156 v -8 c 0 -1.226563 -0.746094 -2.328125 -1.886719 -2.785156 l -20 -8 c -0.371093 -0.148438 -0.769531 -0.21875 -1.171875 -0.214844 z m 0 0" fill="url(#e)"/>
    <path d="m 104 24.402344 c -8.804688 8.726562 -44 23.597656 -65 23.597656 h -3 v 40 l 3 0.128906 c 21 0 56.195312 14.992188 65 23.730469 z m 0 0" fill="url(#f)"/>
    <path d="m 104.0625 21.945312 c 2.207031 0.03125 3.96875 1.847657 3.9375 4.054688 v 84.261719 c 0.078125 5.40625 -8.078125 5.40625 -8 0 v -84.261719 c -0.03125 -2.253906 1.804688 -4.089844 4.0625 -4.054688 z m 0 0" fill="url(#g)"/>
    <path d="m 104.0625 21.945312 c 0.316406 0.003907 0.628906 0.046876 0.9375 0.128907 c -1.785156 0.460937 -3.023438 2.082031 -3 3.925781 v 84.261719 c -0.023438 1.84375 1.214844 3.464843 3.003906 3.925781 c -2.554687 0.660156 -5.039062 -1.289062 -5.003906 -3.925781 v -84.261719 c -0.03125 -2.253906 1.804688 -4.089844 4.0625 -4.054688 z m 0 0" fill-opacity="0.304569"/>
</svg>
