<?xml version="1.0" encoding="UTF-8" standalone="no"?>
<svg
   xmlns:dc="http://purl.org/dc/elements/1.1/"
   xmlns:cc="http://creativecommons.org/ns#"
   xmlns:rdf="http://www.w3.org/1999/02/22-rdf-syntax-ns#"
   xmlns:svg="http://www.w3.org/2000/svg"
   xmlns="http://www.w3.org/2000/svg"
   xmlns:xlink="http://www.w3.org/1999/xlink"
   viewBox="0 0 128 128"
   style="display:inline;enable-background:new"
   version="1.0"
   id="svg11300"
   height="128"
   width="128">
  <title
     id="title4162">Adwaita Icon Template</title>
  <defs
     id="defs3">
    <linearGradient
       id="linearGradient10247">
      <stop
         id="stop10243"
         offset="0"
         style="stop-color:#010101;stop-opacity:1;" />
      <stop
         id="stop10245"
         offset="1"
         style="stop-color:#010101;stop-opacity:0;" />
    </linearGradient>
    <linearGradient
       id="linearGradient10232">
      <stop
         id="stop10228"
         offset="0"
         style="stop-color:#47454b;stop-opacity:1" />
      <stop
         id="stop10230"
         offset="1"
         style="stop-color:#dfdee0;stop-opacity:1" />
    </linearGradient>
    <linearGradient
       id="linearGradient1194">
      <stop
         style="stop-color:#5e5c64;stop-opacity:1"
         offset="0"
         id="stop1190" />
      <stop
         style="stop-color:#77767b;stop-opacity:1"
         offset="1"
         id="stop1192" />
    </linearGradient>
    <linearGradient
       id="linearGradient1188">
      <stop
         id="stop1184"
         offset="0"
         style="stop-color:#c0bfbc;stop-opacity:1" />
      <stop
         id="stop1186"
         offset="1"
         style="stop-color:#f6f5f4;stop-opacity:1" />
    </linearGradient>
    <linearGradient
       id="linearGradient1378">
      <stop
         style="stop-color:#424048;stop-opacity:1"
         offset="0"
         id="stop1366" />
      <stop
         id="stop1368"
         offset="0.04702194"
         style="stop-color:#f6f5f4;stop-opacity:1" />
      <stop
         style="stop-color:#949390;stop-opacity:1"
         offset="0.09717868"
         id="stop1370" />
      <stop
         id="stop1372"
         offset="0.89968652"
         style="stop-color:#d5d3cf;stop-opacity:1" />
      <stop
         style="stop-color:#f6f5f4;stop-opacity:1"
         offset="0.94984329"
         id="stop1374" />
      <stop
         style="stop-color:#424048;stop-opacity:1"
         offset="1"
         id="stop1376" />
    </linearGradient>
    <linearGradient
       id="linearGradient1364">
      <stop
         id="stop1352"
         offset="0"
         style="stop-color:#000000;stop-opacity:1" />
      <stop
         style="stop-color:#424048;stop-opacity:1"
         offset="0.04702194"
         id="stop1354" />
      <stop
         id="stop1356"
         offset="0.09717868"
         style="stop-color:#241f31;stop-opacity:1" />
      <stop
         style="stop-color:#241f31;stop-opacity:1"
         offset="0.89968652"
         id="stop1358" />
      <stop
         id="stop1360"
         offset="0.94984329"
         style="stop-color:#424048;stop-opacity:1" />
      <stop
         id="stop1362"
         offset="1"
         style="stop-color:#000000;stop-opacity:1" />
    </linearGradient>
    <linearGradient
       id="linearGradient1235">
      <stop
         style="stop-color:#949390;stop-opacity:1"
         offset="0"
         id="stop1231" />
      <stop
         style="stop-color:#424048;stop-opacity:1"
         offset="1"
         id="stop1233" />
    </linearGradient>
    <linearGradient
       id="linearGradient983">
      <stop
         id="stop979"
         offset="0"
         style="stop-color:#000000;stop-opacity:0.25098041" />
      <stop
         id="stop981"
         offset="1"
         style="stop-color:#000000;stop-opacity:0.03137255" />
    </linearGradient>
    <linearGradient
       id="linearGradient1282">
      <stop
         id="stop1278"
         offset="0"
         style="stop-color:#f6f5f4;stop-opacity:1;" />
      <stop
         id="stop1280"
         offset="1"
         style="stop-color:#ffffff;stop-opacity:1" />
    </linearGradient>
    <linearGradient
       id="linearGradient1494">
      <stop
         id="stop1490"
         offset="0"
         style="stop-color:#babdb6;stop-opacity:1;" />
      <stop
         id="stop1492"
         offset="1"
         style="stop-color:#babdb6;stop-opacity:0;" />
    </linearGradient>
    <linearGradient
       gradientUnits="userSpaceOnUse"
       y2="20"
       x2="280"
       y1="172"
       x1="280"
       id="linearGradient1496"
       xlink:href="#linearGradient1494" />
    <linearGradient
       gradientTransform="matrix(0.25,0,0,0.25,-1e-5,225)"
       gradientUnits="userSpaceOnUse"
       y2="59.234238"
       x2="318.91211"
       y1="113.76978"
       x1="301.62421"
       id="linearGradient2155"
       xlink:href="#linearGradient1194" />
    <linearGradient
       gradientTransform="matrix(0.25,0,0,0.25,-1e-5,225)"
       y2="-112.15472"
       x2="249"
       y1="125"
       x1="249"
       gradientUnits="userSpaceOnUse"
       id="linearGradient1057"
       xlink:href="#linearGradient1188" />
    <linearGradient
       gradientTransform="matrix(0.25,0,0,0.25,-1e-5,225)"
       gradientUnits="userSpaceOnUse"
       y2="-172"
       x2="323.00003"
       y1="217"
       x1="347.00003"
       id="linearGradient1284"
       xlink:href="#linearGradient1282" />
    <linearGradient
       y2="619.96387"
       x2="496"
       y1="619.96387"
       x1="177"
       gradientTransform="matrix(0.25,0,0,0.24305558,-20.00001,91.56432)"
       gradientUnits="userSpaceOnUse"
       id="linearGradient1444-3-9"
       xlink:href="#linearGradient1378" />
    <linearGradient
       y2="799.96387"
       x2="494.99994"
       y1="799.96387"
       x1="176"
       gradientTransform="matrix(0.25,0,0,0.24305558,-20.00001,91.56432)"
       gradientUnits="userSpaceOnUse"
       id="linearGradient1121"
       xlink:href="#linearGradient1364" />
    <radialGradient
       r="16"
       fy="199.58058"
       fx="128"
       cy="199.58058"
       cx="128"
       gradientUnits="userSpaceOnUse"
       id="radialGradient1131"
       xlink:href="#linearGradient983" />
    <radialGradient
       r="8"
       fy="200.07188"
       fx="127.9371"
       cy="200.07188"
       cx="127.9371"
       gradientTransform="matrix(1.3756505,0,0,1.3756505,-47.996726,-75.471623)"
       gradientUnits="userSpaceOnUse"
       id="radialGradient1133"
       xlink:href="#linearGradient1235" />
    <linearGradient
       y2="70.8974"
       x2="328.0976"
       y1="125.79309"
       x1="298.65759"
       gradientTransform="matrix(0.25,0,0,0.25,-1e-5,225)"
       gradientUnits="userSpaceOnUse"
       id="linearGradient9681"
       xlink:href="#linearGradient10232" />
    <radialGradient
       gradientUnits="userSpaceOnUse"
       gradientTransform="matrix(0.59826328,0.63515006,-0.1152322,0.10854002,50.709492,158.17297)"
       r="36.043909"
       fy="221.95126"
       fx="62.562256"
       cy="221.95126"
       cx="62.562256"
       id="radialGradient10249"
       xlink:href="#linearGradient10247" />
  </defs>
  <metadata
     id="metadata4">
    <rdf:RDF>
      <cc:Work
         rdf:about="">
        <dc:format>image/svg+xml</dc:format>
        <dc:type
           rdf:resource="http://purl.org/dc/dcmitype/StillImage" />
        <dc:creator>
          <cc:Agent>
            <dc:title>GNOME Design Team</dc:title>
          </cc:Agent>
        </dc:creator>
        <dc:source />
        <cc:license
           rdf:resource="http://creativecommons.org/licenses/by-sa/4.0/" />
        <dc:title>Adwaita Icon Template</dc:title>
        <dc:subject>
          <rdf:Bag />
        </dc:subject>
        <dc:date />
        <dc:rights>
          <cc:Agent>
            <dc:title />
          </cc:Agent>
        </dc:rights>
        <dc:publisher>
          <cc:Agent>
            <dc:title />
          </cc:Agent>
        </dc:publisher>
        <dc:identifier />
        <dc:relation />
        <dc:language />
        <dc:coverage />
        <dc:description />
        <dc:contributor>
          <cc:Agent>
            <dc:title />
          </cc:Agent>
        </dc:contributor>
      </cc:Work>
      <cc:License
         rdf:about="http://creativecommons.org/licenses/by-sa/4.0/">
        <cc:permits
           rdf:resource="http://creativecommons.org/ns#Reproduction" />
        <cc:permits
           rdf:resource="http://creativecommons.org/ns#Distribution" />
        <cc:requires
           rdf:resource="http://creativecommons.org/ns#Notice" />
        <cc:requires
           rdf:resource="http://creativecommons.org/ns#Attribution" />
        <cc:permits
           rdf:resource="http://creativecommons.org/ns#DerivativeWorks" />
        <cc:requires
           rdf:resource="http://creativecommons.org/ns#ShareAlike" />
      </cc:License>
    </rdf:RDF>
  </metadata>
  <g
     transform="translate(0,-172)"
     style="display:inline"
     id="layer1">
    <g
       style="display:inline"
       id="layer9">
      <circle
         r="0"
         cy="172"
         cx="32.500057"
         id="path907"
         style="opacity:0.05;fill:#ac1d2e;fill-opacity:1;stroke:none;stroke-width:0.01114019px;stroke-linecap:butt;stroke-linejoin:miter;stroke-miterlimit:4;stroke-dasharray:none;stroke-dashoffset:0;stroke-opacity:1;marker:none;marker-start:none;marker-mid:none;marker-end:none;paint-order:normal" />
      <rect
         ry="8"
         rx="8"
         y="221.99998"
         x="24"
         height="70"
         width="80"
         id="rect1480-3-7-1-2"
         style="display:inline;opacity:1;fill:url(#linearGradient1121);fill-opacity:1;stroke:none;stroke-width:0.01114019px;stroke-linecap:butt;stroke-linejoin:miter;stroke-miterlimit:4;stroke-dasharray:none;stroke-dashoffset:0;stroke-opacity:1;marker:none;marker-start:none;marker-mid:none;marker-end:none;paint-order:normal;enable-background:new" />
      <rect
         ry="8"
         rx="8"
         y="215.99998"
         x="24"
         height="70"
         width="80"
         id="rect1480-3-7-1"
         style="display:inline;opacity:1;fill:url(#linearGradient1444-3-9);fill-opacity:1;stroke:none;stroke-width:0.01114019px;stroke-linecap:butt;stroke-linejoin:miter;stroke-miterlimit:4;stroke-dasharray:none;stroke-dashoffset:0;stroke-opacity:1;marker:none;marker-start:none;marker-mid:none;marker-end:none;paint-order:normal;enable-background:new" />
      <rect
         ry="8.4571428"
         rx="8"
         y="180"
         x="24"
         height="104"
         width="80"
         id="rect1480-6-7"
         style="display:inline;opacity:1;fill:url(#linearGradient1284);fill-opacity:1;stroke:none;stroke-width:0.01161654px;stroke-linecap:butt;stroke-linejoin:miter;stroke-miterlimit:4;stroke-dasharray:none;stroke-dashoffset:0;stroke-opacity:1;marker:none;marker-start:none;marker-mid:none;marker-end:none;paint-order:normal;enable-background:new" />
      <g
         transform="matrix(0.25,0,0,0.25,-1e-5,225)"
         id="g1036"
         style="display:inline;enable-background:new">
        <circle
           style="display:inline;opacity:1;fill:url(#radialGradient1131);fill-opacity:1;stroke:none;stroke-width:0.04456074px;stroke-linecap:butt;stroke-linejoin:miter;stroke-miterlimit:4;stroke-dasharray:none;stroke-dashoffset:0;stroke-opacity:1;marker:none;marker-start:none;marker-mid:none;marker-end:none;paint-order:normal;enable-background:new"
           id="path1137-3"
           cx="128"
           cy="204"
           r="16" />
        <circle
           style="opacity:1;fill:url(#radialGradient1133);fill-opacity:1;stroke:none;stroke-width:0.04456075px;stroke-linecap:butt;stroke-linejoin:miter;stroke-miterlimit:4;stroke-dasharray:none;stroke-dashoffset:0;stroke-opacity:1;marker:none;marker-start:none;marker-mid:none;marker-end:none;paint-order:normal"
           id="path1137"
           cx="128"
           cy="204"
           r="8" />
      </g>
      <path
         id="path905"
         d="m 41.99999,184 c -2.216,0 -4,1.784 -4,4 0,3.31371 -2.68629,6 -6,6 -2.216,0 -4,1.784 -4,4 v 8 c 0,2.216 1.784,4 4,4 3.31371,0 6,2.68629 6,6 -0.003,1.47715 -0.55015,2.90139 -1.5376,4 -5.92217,6.59263 -8.44822,15.13802 -8.4624,24 0,19.88225 16.11775,36 36,36 19.88225,0 36,-16.11775 36,-36 -0.0159,-8.86282 -2.5389,-17.40831 -8.46338,-24 -0.98709,-1.09875 -1.53421,-2.52298 -1.53662,-4 0,-3.31371 2.68629,-6 6,-6 2.216,0 4,-1.784 4,-4 v -8 c 0,-2.216 -1.784,-4 -4,-4 -3.31371,0 -6,-2.68629 -6,-6 0,-2.216 -1.784,-4 -4,-4 z m 22,56 a 6,6 0 0 1 6,6 6,6 0 0 1 -6,6 6,6 0 0 1 -6,-6 6,6 0 0 1 6,-6 z"
         style="display:inline;opacity:1;fill:#9a9996;fill-opacity:1;stroke:none;stroke-width:0.01114019px;stroke-linecap:butt;stroke-linejoin:miter;stroke-miterlimit:4;stroke-dasharray:none;stroke-dashoffset:0;stroke-opacity:1;marker:none;marker-start:none;marker-mid:none;marker-end:none;paint-order:normal;enable-background:new" />
      <path
         id="path905-2"
         d="m 41.99999,182 c -2.216,0 -4,1.784 -4,4 0,3.31371 -2.68629,6 -6,6 -2.216,0 -4,1.784 -4,4 v 8 c 0,2.216 1.784,4 4,4 3.31371,0 6,2.68629 6,6 -0.003,1.47715 -0.55015,2.90139 -1.5376,4 -5.92217,6.59263 -8.44822,15.13802 -8.4624,24 0,19.88225 16.11775,36 36,36 19.88225,0 36,-16.11775 36,-36 -0.0159,-8.86282 -2.5389,-17.40831 -8.46338,-24 -0.98709,-1.09875 -1.53421,-2.52298 -1.53662,-4 0,-3.31371 2.68629,-6 6,-6 2.216,0 4,-1.784 4,-4 v -8 c 0,-2.216 -1.784,-4 -4,-4 -3.31371,0 -6,-2.68629 -6,-6 0,-2.216 -1.784,-4 -4,-4 z m 22,56 a 6,6 0 0 1 6,6 6,6 0 0 1 -6,6 6,6 0 0 1 -6,-6 6,6 0 0 1 6,-6 z"
         style="display:inline;opacity:1;fill:url(#linearGradient1057);fill-opacity:1;stroke:none;stroke-width:0.01161654px;stroke-linecap:butt;stroke-linejoin:miter;stroke-miterlimit:4;stroke-dasharray:none;stroke-dashoffset:0;stroke-opacity:1;marker:none;marker-start:none;marker-mid:none;marker-end:none;paint-order:normal;enable-background:new" />
      <use
         height="100%"
         width="100%"
         transform="translate(64)"
         id="use1038"
         xlink:href="#g1036"
         y="0"
         x="0"
         style="display:inline;enable-background:new" />
      <path
         id="path10234"
         transform="translate(0,172)"
         d="M 61.398438 42.943359 C 59.000691 42.943359 56.715452 43.492114 54.636719 44.214844 A 0.92704756 0.92704756 0 0 0 54.287109 45.746094 L 64.933594 56.365234 C 66.774137 58.200694 66.774165 61.049176 64.933594 62.884766 L 60.919922 66.888672 C 59.07955 68.723952 56.213419 68.723952 54.373047 66.888672 L 43.724609 56.269531 A 0.92704756 0.92704756 0 0 0 42.195312 56.619141 C 41.470369 58.692571 40.919922 60.974688 40.919922 63.367188 C 40.919922 74.637497 50.101205 83.792969 61.398438 83.792969 C 63.58377 83.792969 65.656448 83.309301 67.583984 82.681641 L 96.205078 111.28711 C 96.439701 111.52173 96.679181 111.73155 96.917969 111.94141 C 100.91393 111.46237 104 107.89952 104 103.54297 L 104 92.753906 L 80.765625 69.535156 C 81.394633 67.613016 81.876953 65.546038 81.876953 63.367188 C 81.876953 52.096878 72.695566 42.943359 61.398438 42.943359 z "
         style="color:#000000;font-style:normal;font-variant:normal;font-weight:normal;font-stretch:normal;font-size:medium;line-height:normal;font-family:Sans;-inkscape-font-specification:Sans;text-indent:0;text-align:start;text-decoration:none;text-decoration-line:none;letter-spacing:normal;word-spacing:normal;text-transform:none;writing-mode:lr-tb;direction:ltr;text-anchor:start;display:inline;overflow:visible;visibility:visible;fill:#000000;fill-opacity:1;fill-rule:nonzero;stroke:none;stroke-width:2.11522007;marker:none;enable-background:accumulate;opacity:0.1" />
      <path
         d="m 61.398438,209.94922 c -2.54998,0 -4.942101,0.58013 -7.087891,1.32617 a 1.9221205,1.9221205 0 0 0 -0.726563,3.17578 l 10.646485,10.61914 c 1.467365,1.46331 1.467424,3.64593 0,5.10938 l -4.013672,4.0039 c -1.467,1.46294 -3.673625,1.46294 -5.140625,0 L 44.427734,223.56445 a 1.9221205,1.9221205 0 0 0 -3.171875,0.72657 c -0.748509,2.14083 -1.330078,4.53045 -1.330078,7.07617 0,11.80951 9.63912,21.41992 21.472657,21.41992 2.098622,0 4.052678,-0.43747 5.888671,-0.99219 l 28.214844,28.19531 c 5.237257,5.23727 11.930027,4.68446 15.595707,1.02539 3.66568,-3.65906 4.2486,-10.32756 -0.83204,-15.4082 L 81.878906,237.24023 c 0.555729,-1.83129 0.992188,-3.78043 0.992188,-5.87304 0,-11.80952 -9.639342,-21.41797 -21.472656,-21.41797 z"
         id="path9673"
         style="color:#000000;font-style:normal;font-variant:normal;font-weight:normal;font-stretch:normal;font-size:medium;line-height:normal;font-family:Sans;-inkscape-font-specification:Sans;text-indent:0;text-align:start;text-decoration:none;text-decoration-line:none;letter-spacing:normal;word-spacing:normal;text-transform:none;writing-mode:lr-tb;direction:ltr;text-anchor:start;display:inline;overflow:visible;visibility:visible;fill:url(#linearGradient9681);fill-opacity:1;fill-rule:nonzero;stroke:none;stroke-width:2.11522007;marker:none;enable-background:accumulate" />
      <use
         height="100%"
         width="100%"
         transform="translate(64,-60)"
         id="use1038-9"
         xlink:href="#g1036"
         y="0"
         x="0"
         style="display:inline;enable-background:new" />
      <use
         height="100%"
         width="100%"
         transform="translate(64,-88)"
         id="use1038-7"
         xlink:href="#g1036"
         y="0"
         x="0"
         style="display:inline;enable-background:new" />
      <use
         height="100%"
         width="100%"
         transform="translate(0,-88)"
         id="use1038-2"
         xlink:href="#g1036"
         y="0"
         x="0"
         style="display:inline;enable-background:new" />
      <use
         height="100%"
         width="100%"
         transform="translate(0,-60)"
         id="use1038-3"
         xlink:href="#g1036"
         y="0"
         x="0"
         style="display:inline;enable-background:new" />
      <path
         style="color:#000000;font-style:normal;font-variant:normal;font-weight:normal;font-stretch:normal;font-size:medium;line-height:normal;font-family:Sans;-inkscape-font-specification:Sans;text-indent:0;text-align:start;text-decoration:none;text-decoration-line:none;letter-spacing:normal;word-spacing:normal;text-transform:none;writing-mode:lr-tb;direction:ltr;text-anchor:start;display:inline;overflow:visible;visibility:visible;opacity:0.57999998;fill:url(#radialGradient10249);fill-opacity:1;fill-rule:nonzero;stroke:none;stroke-width:2.11522007;marker:none;enable-background:accumulate"
         id="path10241"
         d="m 61.398438,209.84961 c -2.565301,0 -4.968555,0.58169 -7.121094,1.33008 a 2.0222693,2.0222693 0 0 0 -0.763672,3.34179 l 10.646484,10.61914 c 1.429807,1.42586 1.429869,3.54276 0,4.96876 l -4.013672,4.0039 c -1.429422,1.42546 -3.570577,1.42546 -5,0 L 44.498047,223.49414 a 2.0222693,2.0222693 0 0 0 -3.335938,0.76367 c -0.750881,2.14762 -1.335937,4.54824 -1.335937,7.10938 0,11.86378 9.684753,21.51953 21.572266,21.51953 2.090307,0 4.033718,-0.4324 5.861328,-0.98047 l 28.171875,28.1543 c 5.267269,5.26727 12.036159,4.72278 15.738279,1.02734 3.70212,-3.69544 4.27787,-10.43893 -0.83398,-15.55078 L 81.990234,237.21094 c 0.548715,-1.82239 0.980469,-3.76022 0.980469,-5.84375 0,-11.86379 -9.684987,-21.51758 -21.572265,-21.51758 z" />
      <path
         id="path2141"
         d="m 61.39918,211.87039 c -2.25592,0 -4.44247,0.51766 -6.45873,1.21867 l 10.64819,10.61898 c 2.18821,2.18216 2.18821,5.65137 0,7.83365 l -4.01489,4.00387 c -2.18822,2.18216 -5.66701,2.18216 -7.85523,0 L 43.07034,224.92659 c -0.70299,2.01064 -1.22193,4.19123 -1.22193,6.44098 0,10.76797 8.75318,19.49707 19.55077,19.49707 2.25593,0 4.44248,-0.51766 6.45875,-1.21855 l 29.00274,28.98453 c 9.32243,9.32244 21.00762,-2.70043 12.04464,-11.66341 L 79.72802,237.80856 c 0.70298,-2.01064 1.22191,-4.19123 1.22191,-6.44098 0,-10.76797 -8.75317,-19.49719 -19.55077,-19.49719 z"
         style="color:#000000;font-style:normal;font-variant:normal;font-weight:normal;font-stretch:normal;font-size:medium;line-height:normal;font-family:Sans;-inkscape-font-specification:Sans;text-indent:0;text-align:start;text-decoration:none;text-decoration-line:none;letter-spacing:normal;word-spacing:normal;text-transform:none;writing-mode:lr-tb;direction:ltr;text-anchor:start;display:inline;overflow:visible;visibility:visible;fill:url(#linearGradient2155);fill-opacity:1;fill-rule:nonzero;stroke:none;stroke-width:2.11522007;marker:none;enable-background:accumulate" />
    </g>
    <g
       style="fill:url(#linearGradient1496);fill-opacity:1"
       id="g1480" />
  </g>
</svg>
