<?xml version="1.0" encoding="UTF-8"?>
<svg height="128px" viewBox="0 0 128 128" width="128px" xmlns="http://www.w3.org/2000/svg" xmlns:xlink="http://www.w3.org/1999/xlink">
    <linearGradient id="a" gradientTransform="matrix(0.232143 0 0 0.328947 -8.566925 267.826965)" gradientUnits="userSpaceOnUse" x1="88.595886" x2="536.595886" y1="-449.394012" y2="-449.394012">
        <stop offset="0" stop-color="#c0bfbc"/>
        <stop offset="0.0384615" stop-color="#f6f5f4"/>
        <stop offset="0.0768555" stop-color="#c0bfbc"/>
        <stop offset="0.923077" stop-color="#deddda"/>
        <stop offset="0.961538" stop-color="#c0bfbc"/>
        <stop offset="1" stop-color="#c0bfbc"/>
    </linearGradient>
    <radialGradient id="b" cx="-256" cy="311.779755" gradientTransform="matrix(1 0 0 0.607197 368 -71.31176)" gradientUnits="userSpaceOnUse" r="52.002365">
        <stop offset="0" stop-opacity="0.052532"/>
        <stop offset="1" stop-opacity="0"/>
    </radialGradient>
    <path d="m 20 20 h 88 c 4.417969 0 8 3.582031 8 8 v 84 c 0 4.417969 -3.582031 8 -8 8 h -88 c -4.417969 0 -8 -3.582031 -8 -8 v -84 c 0 -4.417969 3.582031 -8 8 -8 z m 0 0" fill="url(#a)"/>
    <path d="m 20.496094 51.847656 c -4.699219 0 -8.5 3.800782 -8.5 8.5 v 50.152344 c 0 4.699219 3.800781 8.5 8.5 8.5 h 87.003906 c 4.699219 0 8.5 -3.800781 8.5 -8.5 v -50.152344 c 0 -4.699218 -3.800781 -8.5 -8.5 -8.5 z m 0 1 h 87.003906 c 3.109375 0 5.761719 1.863282 6.898438 4.542969 c -1.539063 -2.144531 -4.050782 -3.542969 -6.898438 -3.542969 h -87.003906 c -2.847656 0 -5.359375 1.398438 -6.902344 3.542969 c 1.140625 -2.679687 3.792969 -4.542969 6.902344 -4.542969 z m 0 2 h 87.003906 c 3.109375 0 5.761719 1.863282 6.898438 4.542969 c -1.539063 -2.144531 -4.050782 -3.542969 -6.898438 -3.542969 h -87.003906 c -2.847656 0 -5.359375 1.398438 -6.902344 3.542969 c 1.140625 -2.679687 3.792969 -4.542969 6.902344 -4.542969 z m 0 2 h 87.003906 c 4.164062 0 7.5 3.335938 7.5 7.5 v 42.152344 c 0 4.164062 -3.335938 7.5 -7.5 7.5 h -87.003906 c -4.164063 0 -7.5 -3.335938 -7.5 -7.5 v -42.152344 c 0 -4.164062 3.335937 -7.5 7.5 -7.5 z m -6.902344 54.609375 c 1.542969 2.144531 4.054688 3.542969 6.902344 3.542969 h 87.003906 c 2.847656 0 5.359375 -1.398438 6.898438 -3.542969 c -1.136719 2.679688 -3.789063 4.542969 -6.898438 4.542969 h -87.003906 c -3.109375 0 -5.761719 -1.863281 -6.902344 -4.542969 z m 0 2 c 1.542969 2.144531 4.054688 3.542969 6.902344 3.542969 h 87.003906 c 2.847656 0 5.359375 -1.398438 6.898438 -3.542969 c -1.136719 2.679688 -3.789063 4.542969 -6.898438 4.542969 h -87.003906 c -3.109375 0 -5.761719 -1.863281 -6.902344 -4.542969 z m 0 0" fill="url(#b)"/>
    <path d="m 20 12 h 88 c 4.417969 0 8 3.582031 8 8 v 84 c 0 4.417969 -3.582031 8 -8 8 h -88 c -4.417969 0 -8 -3.582031 -8 -8 v -84 c 0 -4.417969 3.582031 -8 8 -8 z m 0 0" fill="#deddda"/>
    <path d="m 65.28125 27.5625 h -1.242188 l 0.238282 -2.894531 h 6.355468 v -2.828125 h -9.292968 l -0.78125 8.574218 h 3.894531 c 2.761719 0 3.546875 0.78125 3.546875 1.980469 c 0 1.238281 -1.089844 1.980469 -2.851562 1.980469 c -1.585938 0 -3.175782 -0.5 -4.328126 -1.371094 l -1.394531 2.699219 c 1.480469 1.042969 3.699219 1.628906 5.8125 1.628906 c 4.351563 0 6.332031 -2.347656 6.332031 -5.046875 c 0 -2.699218 -1.785156 -4.722656 -6.289062 -4.722656 z m 0 0" fill="#241f31"/>
    <g fill="#62a0ea">
        <path d="m 26 46 h 78 v 2 h -78 z m 0 0"/>
        <path d="m 26 78 h 78 v 2 h -78 z m 0 0"/>
        <path d="m 50 24 v 78 h -2 v -78 z m 0 0"/>
        <path d="m 82 24 v 78 h -2 v -78 z m 0 0"/>
    </g>
    <path d="m 50 48 h 30 v 30 h -30 z m 0 0" fill="#99c1f1"/>
    <path d="m 57.730469 54.050781 v 6.324219 h 3.699219 v -2.929688 h 5.964843 l -6.453125 14.597657 h 4.523438 l 6.683594 -15.292969 v -2.699219 z m 0 0" fill="#ffffff"/>
    <path d="m 101.242188 29.066406 c 1.128906 -0.699218 1.78125 -1.765625 1.78125 -3.136718 c 0 -2.675782 -2.390626 -4.351563 -5.894532 -4.351563 c -3.460937 0 -5.855468 1.675781 -5.855468 4.351563 c 0 1.371093 0.632812 2.4375 1.761718 3.136718 c -1.457031 0.738282 -2.304687 1.957032 -2.304687 3.589844 c 0 2.871094 2.546875 4.675781 6.398437 4.675781 c 3.871094 0 6.441406 -1.804687 6.441406 -4.675781 c 0 -1.632812 -0.851562 -2.851562 -2.328124 -3.589844 z m -4.113282 -4.898437 c 1.433594 0 2.390625 0.71875 2.390625 1.914062 c 0 1.15625 -0.933593 1.871094 -2.390625 1.871094 c -1.4375 0 -2.351562 -0.714844 -2.351562 -1.871094 c 0 -1.195312 0.9375 -1.914062 2.351562 -1.914062 z m 0 10.574219 c -1.742187 0 -2.832031 -0.847657 -2.832031 -2.195313 c 0 -1.351563 1.089844 -2.175781 2.832031 -2.175781 c 1.761719 0 2.871094 0.824218 2.871094 2.175781 c 0 1.347656 -1.109375 2.195313 -2.871094 2.195313 z m 0 0" fill="#3584e4"/>
    <path d="m 29.429688 21.839844 v 2.828125 h 3.046874 v 12.40625 h 3.523438 v -15.234375 z m 0 0" fill="#241f31"/>
    <path d="m 38.480469 98 h -2.480469 v -2.851562 h -3.328125 v 2.851562 h -4.09375 l 6.660156 -9.160156 h -3.699219 l -7.179687 9.660156 v 2.371094 h 8.203125 v 3.199218 h 3.4375 v -3.199218 h 2.480469 z m 0 0" fill="#241f31"/>
    <path d="m 53 83.03125 v -3 h -3.644531 c -0.8125 0 -1.417969 -0.605469 -1.417969 -1.417969 v -3.613281 h -3 v 3.613281 c 0 2.421875 1.996094 4.417969 4.417969 4.417969 z m 23.9375 0 v -3 h 3.644531 c 0.8125 0 1.417969 -0.605469 1.417969 -1.417969 v -3.613281 h 3 v 3.613281 c 0 2.421875 -1.996094 4.417969 -4.417969 4.417969 z m -23.9375 -40.03125 v 3 h -3.644531 c -0.8125 0 -1.417969 0.605469 -1.417969 1.417969 v 3.613281 h -3 v -3.613281 c 0 -2.421875 1.996094 -4.417969 4.417969 -4.417969 z m 23.9375 0 v 3 h 3.644531 c 0.8125 0 1.417969 0.605469 1.417969 1.417969 v 3.613281 h 3 v -3.613281 c 0 -2.421875 -1.996094 -4.417969 -4.417969 -4.417969 z m 0 0" fill="#1a5fb4"/>
    <path d="m 53 82 v -3 h -3.644531 c -0.8125 0 -1.417969 -0.605469 -1.417969 -1.417969 v -3.613281 h -3 v 3.613281 c 0 2.421875 1.996094 4.417969 4.417969 4.417969 z m 23.9375 0 v -3 h 3.644531 c 0.8125 0 1.417969 -0.605469 1.417969 -1.417969 v -3.613281 h 3 v 3.613281 c 0 2.421875 -1.996094 4.417969 -4.417969 4.417969 z m -23.9375 -40.03125 v 3 h -3.644531 c -0.8125 0 -1.417969 0.605469 -1.417969 1.417969 v 3.613281 h -3 v -3.613281 c 0 -2.421875 1.996094 -4.417969 4.417969 -4.417969 z m 23.9375 0 v 3 h 3.644531 c 0.8125 0 1.417969 0.605469 1.417969 1.417969 v 3.613281 h 3 v -3.613281 c 0 -2.421875 -1.996094 -4.417969 -4.417969 -4.417969 z m 0 0" fill="#1c71d8"/>
</svg>
