<?xml version="1.0" encoding="UTF-8"?>
<svg height="128px" viewBox="0 0 128 128" width="128px" xmlns="http://www.w3.org/2000/svg" xmlns:xlink="http://www.w3.org/1999/xlink">
    <linearGradient id="a" gradientUnits="userSpaceOnUse" x1="39.36574252194" x2="39.36574252194" y1="7.99995424564" y2="120.75088999667">
        <stop offset="0" stop-color="#edece9"/>
        <stop offset="1" stop-color="#ffffff"/>
    </linearGradient>
    <radialGradient id="b" cx="285.130493" cy="39.75565" gradientTransform="matrix(0.050452 0.27802 -0.499163 0.0699068 61.285717 -14.534348)" gradientUnits="userSpaceOnUse" r="160">
        <stop offset="0" stop-color="#dc8add"/>
        <stop offset="1" stop-color="#813d9c"/>
    </radialGradient>
    <filter id="c" height="100%" width="100%" x="0%" y="0%">
        <feColorMatrix in="SourceGraphic" type="matrix" values="0 0 0 0 1 0 0 0 0 1 0 0 0 0 1 0 0 0 1 0"/>
    </filter>
    <mask id="d">
        <g filter="url(#c)">
            <rect fill-opacity="0.1" height="128" width="128"/>
        </g>
    </mask>
    <clipPath id="e">
        <rect height="152" width="192"/>
    </clipPath>
    <mask id="f">
        <g filter="url(#c)">
            <rect fill-opacity="0.1" height="128" width="128"/>
        </g>
    </mask>
    <clipPath id="g">
        <rect height="152" width="192"/>
    </clipPath>
    <radialGradient id="h" cx="399.441895" cy="227.132568" gradientTransform="matrix(0.68157 -0.68157 0.0138107 0.0138107 -179.349442 377.066956)" gradientUnits="userSpaceOnUse" r="64">
        <stop offset="0" stop-color="#d5d4cf"/>
        <stop offset="1" stop-color="#f6f5f4"/>
    </radialGradient>
    <path d="m 28.007812 8 h 71.984376 c 4.4375 0 8.011718 3.570312 8.007812 8.007812 l -0.09375 80.09375 l -24.019531 24.027344 h -55.753907 c -4.433593 0 -8 -3.570312 -8.007812 -8.007812 l -0.125 -96.113282 c -0.007812 -4.4375 3.570312 -8.007812 8.007812 -8.007812 z m 0 0" fill="url(#a)"/>
    <path d="m 27.867188 16 h 72.0625 v 84.125 l -14.25 11.875 h -57.8125 z m 0 0" fill="url(#b)"/>
    <path d="m 94.527344 39.699219 c -11.695313 -1.484375 -19.335938 1.019531 -25.878906 4.417969 c 6.648437 -8.367188 14.945312 -10.984376 25.878906 -4.417969 z m 0 0" fill="#12121c" fill-rule="evenodd"/>
    <path d="m 30.578125 45.378906 c 11.121094 -3.875 19.125 -3.011718 26.242187 -1.046875 c -8.277343 -6.800781 -16.945312 -7.640625 -26.242187 1.046875 z m 0 0" fill="#12121c" fill-rule="evenodd"/>
    <g clip-path="url(#e)" mask="url(#d)" transform="matrix(1 0 0 1 -8 -16)">
        <path d="m 102.527344 57.355469 c -11.695313 -1.484375 -19.335938 1.019531 -25.878906 4.417969 c 6.648437 -8.367188 14.945312 -10.984376 25.878906 -4.417969 z m 0 0" fill="#12121c" fill-rule="evenodd"/>
    </g>
    <g clip-path="url(#g)" mask="url(#f)" transform="matrix(1 0 0 1 -8 -16)">
        <path d="m 38.578125 63.035156 c 11.121094 -3.875 19.125 -3.015625 26.242187 -1.046875 c -8.277343 -6.800781 -16.945312 -7.640625 -26.242187 1.046875 z m 0 0" fill="#12121c" fill-rule="evenodd"/>
    </g>
    <path d="m 99.929688 50.609375 c -28.152344 14.398437 -55 13.910156 -72.3125 11.117187 v 13.667969 c 28.046874 20.363281 53.246093 10.902344 72.3125 -5.261719 z m 0 0" fill="#c0bfbc" fill-rule="evenodd"/>
    <path d="m 99.929688 50.605469 c -2.488282 1.273437 -4.96875 2.421875 -7.433594 3.472656 c 1.058594 3.667969 4.976562 16.230469 5.433594 17.695313 c 0.671874 -0.542969 1.34375 -1.082032 2 -1.640626 z m -9.199219 4.214843 c -3.359375 1.367188 -6.6875 2.523438 -9.964844 3.515626 c -0.265625 2.382812 3.746094 17.125 4.996094 21.640624 c 4.265625 -2.324218 8.3125 -5.113281 12.140625 -8.1875 c -0.734375 -2.1875 -4.828125 -14.25 -7.171875 -16.96875 z m -11.863281 4.078126 c -3.835938 1.089843 -7.597657 1.941406 -11.269532 2.59375 c -0.078125 5.136718 1.789063 20.203124 2.332032 24.472656 c 5.523437 -1.164063 10.804687 -3.257813 15.804687 -5.976563 c -1.273437 -4.417969 -5.410156 -18.644531 -6.867187 -21.089843 z m -8.9375 27.066406 c -0.554688 -4.285156 -2.628907 -19.648438 -4.375 -24.140625 c -4.386719 0.699219 -8.628907 1.121093 -12.691407 1.320312 c -1.28125 3.839844 -1.40625 18.941407 -1.417969 23.046875 c 6.410157 1.199219 12.582032 1.015625 18.484376 -0.226562 z m -18.484376 0.226562 c -0.003906 -4.054687 -0.066406 -18.597656 -0.667968 -22.957031 c -4.039063 0.125 -7.875 0.035156 -11.488282 -0.195313 c -1.375 3.050782 -2.554687 13.300782 -3.027343 17.753907 c 5.183593 2.726562 10.253906 4.476562 15.183593 5.398437 z m -23.828124 -24.472656 v 13.675781 c 2.898437 2.109375 5.765624 3.890625 8.601562 5.382813 c 0.367188 -4.398438 1.183594 -14.492188 1.246094 -17.875 c -3.539063 -0.28125 -6.839844 -0.699219 -9.847656 -1.183594 z m 0 0" fill="#ffffff" fill-rule="evenodd"/>
    <path d="m 92 96 c -4.433594 0 -8 3.566406 -8 8 v 16 l 24 -24 z m 0 0" fill="url(#h)"/>
</svg>
