<?xml version="1.0" encoding="UTF-8"?>
<svg height="128px" viewBox="0 0 128 128" width="128px" xmlns="http://www.w3.org/2000/svg" xmlns:xlink="http://www.w3.org/1999/xlink">
    <linearGradient id="a" gradientUnits="userSpaceOnUse" x1="12.000435" x2="116.000435" y1="103.999786" y2="103.999786">
        <stop offset="0" stop-color="#613583"/>
        <stop offset="0.0384615" stop-color="#c061cb"/>
        <stop offset="0.0769231" stop-color="#613583"/>
        <stop offset="0.923077" stop-color="#613583"/>
        <stop offset="0.961538" stop-color="#c061cb"/>
        <stop offset="1" stop-color="#613583"/>
    </linearGradient>
    <filter id="b" height="100%" width="100%" x="0%" y="0%">
        <feColorMatrix in="SourceGraphic" type="matrix" values="0 0 0 0 1 0 0 0 0 1 0 0 0 0 1 0 0 0 1 0"/>
    </filter>
    <mask id="c">
        <g filter="url(#b)">
            <rect fill-opacity="0.2" height="128" width="128"/>
        </g>
    </mask>
    <clipPath id="d">
        <rect height="152" width="192"/>
    </clipPath>
    <linearGradient id="e" gradientTransform="matrix(-1.023256 0 0 1.142857 129.488831 -200.571644)" gradientUnits="userSpaceOnUse" x1="51.951954" x2="108" y1="209.310547" y2="260">
        <stop offset="0" stop-color="#f6f5f4"/>
        <stop offset="1" stop-color="#deddda"/>
    </linearGradient>
    <radialGradient id="f" cx="-223" cy="64" gradientTransform="matrix(0 -1.555555 1.555555 0 -35.555054 -298.388901)" gradientUnits="userSpaceOnUse" r="24">
        <stop offset="0" stop-color="#c061cb"/>
        <stop offset="1" stop-color="#a347ba"/>
    </radialGradient>
    <linearGradient id="g" gradientUnits="userSpaceOnUse">
        <stop offset="0" stop-color="#3d3846"/>
        <stop offset="0.350902" stop-color="#9a9996"/>
        <stop offset="0.601801" stop-color="#77767b"/>
        <stop offset="1" stop-color="#3d3846"/>
    </linearGradient>
    <linearGradient id="h" gradientTransform="matrix(0.75 0 0 0.7 -28.999565 -63.000214)" x1="60" x2="68" xlink:href="#g" y1="199.856003" y2="199.856003"/>
    <linearGradient id="i" gradientTransform="matrix(0.75 0 0 0.7 -28.999565 -96.000206)" x1="60" x2="68" xlink:href="#g" y1="199.856003" y2="199.856003"/>
    <linearGradient id="j" gradientTransform="matrix(0 -1 1 0 0.000435 -171.000213)" gradientUnits="userSpaceOnUse" x1="-253.999969" x2="-206" y1="63.999985" y2="63.999985">
        <stop offset="0" stop-color="#deddda"/>
        <stop offset="1" stop-color="#f6f5f4"/>
    </linearGradient>
    <path d="m 20 32 h 88 c 4.417969 0 8 3.582031 8 8 v 68 c 0 4.417969 -3.582031 8 -8 8 h -88 c -4.417969 0 -8 -3.582031 -8 -8 v -68 c 0 -4.417969 3.582031 -8 8 -8 z m 0 0" fill="url(#a)"/>
    <path d="m 20 12 h 88 c 4.417969 0 8 3.582031 8 8 v 80 c 0 4.417969 -3.582031 8 -8 8 h -88 c -4.417969 0 -8 -3.582031 -8 -8 v -80 c 0 -4.417969 3.582031 -8 8 -8 z m 0 0" fill="#a347ba"/>
    <g clip-path="url(#d)" mask="url(#c)" transform="matrix(1 0 0 1 -8 -16)">
        <path d="m 113 38 h -82 c -1.65625 0 -3 1.34375 -3 3 v 74 c 0 1.65625 1.34375 3 3 3 h 82 c 1.65625 0 3 -1.34375 3 -3 v -74 c 0 -1.65625 -1.34375 -3 -3 -3 z m 0 0"/>
    </g>
    <path d="m 16 72 h 6 v 14 h -6 z m 0 0" fill="#3d3846"/>
    <path d="m 16 38 h 6 v 15 h -6 z m 0 0" fill="#3d3846"/>
    <path d="m 105 20 h -82 c -1.65625 0 -3 1.34375 -3 3 v 74 c 0 1.65625 1.34375 3 3 3 h 82 c 1.65625 0 3 -1.34375 3 -3 v -74 c 0 -1.65625 -1.34375 -3 -3 -3 z m 0 0" fill="url(#e)"/>
    <path d="m 64 33 c 15.464844 0 28 12.535156 28 28 s -12.535156 28 -28 28 s -28 -12.535156 -28 -28 s 12.535156 -28 28 -28 z m 0 0" fill="#613583"/>
    <path d="m 64 31 c 15.464844 0 28 12.535156 28 28 s -12.535156 28 -28 28 s -28 -12.535156 -28 -28 s 12.535156 -28 28 -28 z m 0 0" fill="url(#f)"/>
    <path d="m 19 69 c -1.65625 0 -3 0.449219 -3 1 v 14 h 6 v -14 c 0 -0.550781 -1.34375 -1 -3 -1 z m 0 0" fill="url(#h)"/>
    <path d="m 19 83 c -1.65625 0 -3 0.449219 -3 1 s 1.34375 1 3 1 c 0.339844 0 0.679688 -0.019531 1 -0.058594 v -0.941406 h 2 c 0 -0.550781 -1.34375 -1 -3 -1 z m 0 0" fill="#3d3846"/>
    <path d="m 19 75 c -1.65625 0 -3 0.449219 -3 1 v 2 c 0 -0.550781 1.34375 -1 3 -1 s 3 0.449219 3 1 v -2 c 0 -0.550781 -1.34375 -1 -3 -1 z m 1.199219 2.914062 c -0.019531 0.003907 -0.039063 0.007813 -0.058594 0.007813 c 0.019531 0 0.039063 -0.003906 0.058594 -0.007813 z m 0 0" fill="#3d3846"/>
    <path d="m 19 36 c -1.65625 0 -3 0.449219 -3 1 v 14 h 6 v -14 c 0 -0.550781 -1.34375 -1 -3 -1 z m 0 0" fill="url(#i)"/>
    <path d="m 19 50 c -1.65625 0 -3 0.449219 -3 1 s 1.34375 1 3 1 c 0.339844 0 0.679688 -0.019531 1 -0.058594 v -0.941406 h 2 c 0 -0.550781 -1.34375 -1 -3 -1 z m 0 0" fill="#3d3846"/>
    <path d="m 19 42 c -1.65625 0 -3 0.449219 -3 1 v 2 c 0 -0.550781 1.34375 -1 3 -1 s 3 0.449219 3 1 v -2 c 0 -0.550781 -1.34375 -1 -3 -1 z m 1.199219 2.914062 c -0.019531 0.003907 -0.039063 0.007813 -0.058594 0.007813 c 0.019531 0 0.039063 -0.003906 0.058594 -0.007813 z m 0 0" fill="#3d3846"/>
    <path d="m 64 35 c 13.253906 0 24 10.746094 24 24 s -10.746094 24 -24 24 s -24 -10.746094 -24 -24 s 10.746094 -24 24 -24 z m 0 0" fill="url(#j)"/>
    <path d="m 68 43 h -8 v 10 h 4 v 2 l -4 2 v 18 h 8 v -10 l -4 -2 l 4 -2 z m 0 0" fill="#3d3846"/>
</svg>
