<?xml version="1.0" encoding="UTF-8"?>
<svg height="128px" viewBox="0 0 128 128" width="128px" xmlns="http://www.w3.org/2000/svg" xmlns:xlink="http://www.w3.org/1999/xlink">
    <linearGradient id="a" gradientTransform="matrix(0.192351 0 0 0.25 22.005213 57.000031)" gradientUnits="userSpaceOnUse" x1="10.276156" x2="426.276215" y1="259.999878" y2="259.999878">
        <stop offset="0" stop-color="#9a9996"/>
        <stop offset="0.0502156" stop-color="#c0bfbc"/>
        <stop offset="0.100204" stop-color="#9a9996"/>
        <stop offset="0.900023" stop-color="#9a9996"/>
        <stop offset="0.950011" stop-color="#c0bfbc"/>
        <stop offset="1" stop-color="#9a9996"/>
    </linearGradient>
    <path d="m 32 36 h 64 c 4.417969 0 8 3.582031 8 8 v 68 c 0 4.417969 -3.582031 8 -8 8 h -64 c -4.417969 0 -8 -3.582031 -8 -8 v -68 c 0 -4.417969 3.582031 -8 8 -8 z m 0 0" fill="url(#a)"/>
    <path d="m 32 8 h 64 c 4.417969 0 8 3.582031 8 8 v 90 c 0 4.417969 -3.582031 8 -8 8 h -64 c -4.417969 0 -8 -3.582031 -8 -8 v -90 c 0 -4.417969 3.582031 -8 8 -8 z m 0 0" fill="#deddda"/>
    <path d="m 38 18 h 52.039062 c 2.210938 0 4 1.789062 4 4 v 6 c 0 2.210938 -1.789062 4 -4 4 h -52.039062 c -2.210938 0 -4 -1.789062 -4 -4 v -6 c 0 -2.210938 1.789062 -4 4 -4 z m 0 0" fill="#77767b"/>
    <path d="m 38 36 h 52.039062 c 2.210938 0 4 -1.789062 4 -4 v -8 c 0 -2.210938 -1.789062 -4 -4 -4 h -52.039062 c -2.210938 0 -4 1.789062 -4 4 v 8 c 0 2.210938 1.789062 4 4 4 z m 0 0" fill="#6fb182"/>
    <path d="m 34 51 v 2 c 0 3.878906 3.121094 7 7 7 s 7 -3.121094 7 -7 v -2 z m 0 0" fill="#5e5c64"/>
    <path d="m 41 44 c 3.867188 0 7 3.132812 7 7 s -3.132812 7 -7 7 s -7 -3.132812 -7 -7 s 3.132812 -7 7 -7 z m 0 0" fill="#9a9996"/>
    <path d="m 57.011719 51 v 2 c 0 3.878906 3.121093 7 7 7 c 3.875 0 7 -3.121094 7 -7 v -2 z m 0 0" fill="#5e5c64"/>
    <path d="m 64 44 c 3.867188 0 7 3.132812 7 7 s -3.132812 7 -7 7 s -7 -3.132812 -7 -7 s 3.132812 -7 7 -7 z m 0 0" fill="#9a9996"/>
    <path d="m 80 51 v 2 c 0 3.878906 3.121094 7 7 7 s 7 -3.121094 7 -7 v -2 z m 0 0" fill="#5e5c64"/>
    <path d="m 87 44 c 3.867188 0 7 3.132812 7 7 s -3.132812 7 -7 7 s -7 -3.132812 -7 -7 s 3.132812 -7 7 -7 z m 0 0" fill="#9a9996"/>
    <path d="m 34 73 v 2 c 0 3.878906 3.121094 7 7 7 s 7 -3.121094 7 -7 v -2 z m 0 0" fill="#3d3846"/>
    <path d="m 57.011719 73 v 2 c 0 3.878906 3.121093 7 7 7 c 3.875 0 7 -3.121094 7 -7 v -2 z m 0 0" fill="#3d3846"/>
    <path d="m 41 66 c 3.867188 0 7 3.132812 7 7 s -3.132812 7 -7 7 s -7 -3.132812 -7 -7 s 3.132812 -7 7 -7 z m 0 0" fill="#5e5c64"/>
    <path d="m 64 66 c 3.867188 0 7 3.132812 7 7 s -3.132812 7 -7 7 s -7 -3.132812 -7 -7 s 3.132812 -7 7 -7 z m 0 0" fill="#5e5c64"/>
    <path d="m 34 95 v 2 c 0 3.878906 3.121094 7 7 7 s 7 -3.121094 7 -7 v -2 z m 0 0" fill="#3d3846"/>
    <path d="m 41 88 c 3.867188 0 7 3.132812 7 7 s -3.132812 7 -7 7 s -7 -3.132812 -7 -7 s 3.132812 -7 7 -7 z m 0 0" fill="#5e5c64"/>
    <path d="m 57.011719 95 v 2 c 0 3.878906 3.121093 7 7 7 c 3.875 0 7 -3.121094 7 -7 v -2 z m 0 0" fill="#3d3846"/>
    <path d="m 64 88 c 3.867188 0 7 3.132812 7 7 s -3.132812 7 -7 7 s -7 -3.132812 -7 -7 s 3.132812 -7 7 -7 z m 0 0" fill="#5e5c64"/>
    <path d="m 87 86 c 3.867188 0 7 3.132812 7 7 v 4 c 0 3.867188 -3.132812 7 -7 7 s -7 -3.132812 -7 -7 v -4 c 0 -3.867188 3.132812 -7 7 -7 z m 0 0" fill="#c64600"/>
    <path d="m 87 66 c 3.867188 0 7 3.132812 7 7 v 22 c 0 3.867188 -3.132812 7 -7 7 s -7 -3.132812 -7 -7 v -22 c 0 -3.867188 3.132812 -7 7 -7 z m 0 0" fill="#ff7800"/>
</svg>
