<svg xmlns="http://www.w3.org/2000/svg" width="128" height="128"><defs><radialGradient id="a" gradientUnits="userSpaceOnUse" cx="280.994" cy="488.848" fx="280.994" fy="488.848" r="224" gradientTransform="matrix(.347 0 0 .34223 -33.506 -129.482)"><stop offset="0" stop-color="#fdfacf"/><stop offset=".4" stop-color="#f9f06b"/><stop offset="1" stop-color="#e5a50a"/></radialGradient><linearGradient id="b" gradientUnits="userSpaceOnUse" x1="85" y1="107.162" x2="85" y2="86" gradientTransform="translate(-6 4)"><stop offset="0" stop-color="#eef4fc"/><stop offset="1" stop-color="#fff"/></linearGradient></defs><path d="M20 20h88v88H20zm0 0" fill="#f5c211"/><path d="M126 64l-62 62L2 64 64 2zm0 0" fill="#f6d32d"/><path d="M112 64c0 26.508-21.492 48-48 48S16 90.508 16 64s21.492-48 48-48 48 21.492 48 48zm0 0" fill="url(#a)"/><path d="M90 72a19.994 19.994 0 00-18.156 11.668A15.016 15.016 0 0065 82c-7.89.008-14.426 6.129-14.95 14H50c-4.098 0-7.617 2.469-9.16 6H40v4c0 5.523 4.477 10 10 10h56c6.629 0 12-5.371 12-12v-4h-.707a11.993 11.993 0 00-7.328-7.313c.015-.23.027-.457.035-.687 0-11.047-8.953-20-20-20zm0 0" fill="#dceafa"/><path d="M90 68a19.994 19.994 0 00-18.156 11.668A15.016 15.016 0 0065 78c-7.89.008-14.426 6.129-14.95 14H50c-5.523 0-10 4.477-10 10s4.477 10 10 10h56c6.629 0 12-5.371 12-12a11.997 11.997 0 00-8.035-11.313c.015-.23.027-.457.035-.687 0-11.047-8.953-20-20-20zm0 0" fill="url(#b)"/></svg>