<?xml version="1.0" encoding="UTF-8"?>
<svg height="128px" viewBox="0 0 128 128" width="128px" xmlns="http://www.w3.org/2000/svg" xmlns:xlink="http://www.w3.org/1999/xlink">
    <linearGradient id="a" gradientTransform="matrix(0.232143 0 0 0.328947 -8.56691 267.826965)" gradientUnits="userSpaceOnUse" x1="88.595886" x2="536.595886" y1="-449.394012" y2="-449.394012">
        <stop offset="0" stop-color="#c0bfbc"/>
        <stop offset="0.0384615" stop-color="#f6f5f4"/>
        <stop offset="0.0768555" stop-color="#c0bfbc"/>
        <stop offset="0.923077" stop-color="#deddda"/>
        <stop offset="0.961538" stop-color="#c0bfbc"/>
        <stop offset="1" stop-color="#c0bfbc"/>
    </linearGradient>
    <linearGradient id="b" gradientTransform="matrix(0.232143 0 0 0.328947 -8.56691 267.826965)" gradientUnits="userSpaceOnUse" x1="88.595886" x2="536.595886" y1="-449.394012" y2="-449.394012">
        <stop offset="0" stop-color="#241f31"/>
        <stop offset="0.0384615" stop-color="#9a9996"/>
        <stop offset="0.0768555" stop-color="#241f31"/>
        <stop offset="0.923077" stop-color="#241f31"/>
        <stop offset="0.961538" stop-color="#c0bfbc"/>
        <stop offset="1" stop-color="#c0bfbc"/>
    </linearGradient>
    <radialGradient id="c" cx="-256" cy="311.779755" gradientTransform="matrix(1 0 0 0.607197 368 -71.31176)" gradientUnits="userSpaceOnUse" r="52.002365">
        <stop offset="0" stop-opacity="0.05098"/>
        <stop offset="1" stop-opacity="0"/>
    </radialGradient>
    <clipPath id="d">
        <path d="m 12 68 h 52 v 46 h -52 z m 0 0"/>
    </clipPath>
    <clipPath id="e">
        <path d="m 20 12 h 88 c 4.417969 0 8 3.582031 8 8 v 86 c 0 4.417969 -3.582031 8 -8 8 h -88 c -4.417969 0 -8 -3.582031 -8 -8 v -86 c 0 -4.417969 3.582031 -8 8 -8 z m 0 0"/>
    </clipPath>
    <path d="m 64 20 v 100 h 44 c 4.433594 0 8 -3.566406 8 -8 v -84 c 0 -4.433594 -3.566406 -8 -8 -8 z m 0 0" fill="url(#a)"/>
    <path d="m 12 92.859375 v 19.140625 c 0 4.433594 3.566406 8 8 8 h 46 v -27.140625 z m 0 0" fill="url(#b)"/>
    <path d="m 13.59375 111.457031 c 1.542969 2.144531 4.054688 3.542969 6.902344 3.542969 h 87.003906 c 2.847656 0 5.359375 -1.398438 6.898438 -3.542969 c -1.136719 2.679688 -3.789063 4.542969 -6.898438 4.542969 h -87.003906 c -3.109375 0 -5.761719 -1.863281 -6.902344 -4.542969 z m 0 2 c 1.542969 2.144531 4.054688 3.542969 6.902344 3.542969 h 87.003906 c 2.847656 0 5.359375 -1.398438 6.898438 -3.542969 c -1.136719 2.679688 -3.789063 4.542969 -6.898438 4.542969 h -87.003906 c -3.109375 0 -5.761719 -1.863281 -6.902344 -4.542969 z m 0 0" fill="url(#c)"/>
    <path d="m 20 12 c -4.433594 0 -8 3.566406 -8 8 v 45 h 52 v 47 h 44 c 4.433594 0 8 -3.566406 8 -8 v -84 c 0 -4.433594 -3.566406 -8 -8 -8 z m 0 0" fill="#f6f5f4"/>
    <g clip-path="url(#d)">
        <g clip-path="url(#e)">
            <path d="m 12 68 h 52 v 46 h -52 z m 0 0" fill="#3d3846"/>
        </g>
    </g>
    <path d="m 62 12 v 52 h -50 v 4 h 50 v 46 h 4 v -48 h 50 v -2 h -50 v -52 z m 0 0" fill="#3d3846"/>
    <path d="m 39.957031 23.6875 c -9.183593 0 -15.046875 5.523438 -15.046875 13.625 c 0 7.800781 5.453125 13.03125 13.589844 13.03125 c 4.109375 0 7.617188 -1.234375 10.53125 -3.699219 v -12.019531 h -11.652344 v 5.453125 h 5.492188 v 3.894531 c -0.910156 0.488282 -2.140625 0.769532 -3.585938 0.769532 c -4.667968 0 -7.578125 -3.023438 -7.578125 -7.949219 c 0 -4.816407 2.800781 -7.394531 8.0625 -7.394531 c 2.203125 0 4.777344 0.410156 6.496094 1.007812 l 1.792969 -5.078125 c -2.203125 -1.042969 -5.152344 -1.640625 -8.101563 -1.640625 z m 37.925781 0.3125 v 26 h 6.121094 v -17.109375 l 10.753906 17.109375 h 7.242188 v -26 h -6.195312 l -0.070313 16.980469 l -10.460937 -16.980469 z m 0 0" fill="#9a9996"/>
    <path d="m 73.578125 76.765625 h 1.351563 v -5.59375 h -1.308594 l -2.585938 3.832031 v 0.730469 h 4.871094 v -1.167969 l -4.167969 -0.015625 l 0.402344 0.4375 l 1.605469 -2.535156 l -0.167969 -0.390625 z m 0 0" fill="#c0bfbc"/>
    <path d="m 76.410156 76.726562 h 3.921875 v -1.199218 h -2.289062 l 0.007812 0.285156 c 1.425781 -1.039062 2.136719 -2.03125 2.136719 -3 c 0 -1.039062 -0.816406 -1.71875 -2.070312 -1.71875 c -0.722657 0 -1.378907 0.222656 -1.914063 0.664062 l 0.351563 1.015626 c 0.449218 -0.3125 0.890624 -0.472657 1.289062 -0.472657 c 0.550781 0 0.902344 0.296875 0.902344 0.730469 c 0 0.6875 -0.886719 1.519531 -2.335938 2.71875 z m 0 0" fill="#c0bfbc"/>
    <path d="m 12 62 h 50 v 2 h -50 z m 0 0" fill-opacity="0.2"/>
    <path d="m 66 62 h 50 v 2 h -50 z m 0 0" fill-opacity="0.2"/>
    <path d="m 24.652344 17.09375 c -1.414063 0 -2.371094 1.152344 -2.371094 2.878906 c 0 1.695313 0.9375 2.832032 2.328125 2.832032 c 1.410156 0 2.359375 -1.152344 2.359375 -2.886719 c 0 -1.695313 -0.933594 -2.824219 -2.316406 -2.824219 z m -5.03125 0.078125 l -2.585938 3.832031 v 0.730469 h 2.542969 v 1.03125 h 1.355469 v -1.03125 h 0.972656 v -1.167969 l -0.972656 -0.003906 v -3.390625 z m 5 1.105469 c 0.550781 0 0.925781 0.679687 0.925781 1.707031 c 0 0.980469 -0.367187 1.636719 -0.90625 1.636719 c -0.566406 0 -0.933594 -0.679688 -0.933594 -1.695313 c 0 -0.992187 0.367188 -1.648437 0.914063 -1.648437 z m -5.042969 0.441406 v 1.839844 l -1.160156 -0.007813 z m 0 0" fill="#c0bfbc"/>
</svg>
