<svg xmlns="http://www.w3.org/2000/svg" xmlns:xlink="http://www.w3.org/1999/xlink" width="128" height="128" version="1.0"><defs><linearGradient id="a"><stop offset="0" stop-color="#68676b"/><stop offset=".8" stop-color="#424048"/><stop offset="1" stop-color="#241f31"/></linearGradient><radialGradient xlink:href="#a" id="d" gradientUnits="userSpaceOnUse" gradientTransform="matrix(1.34416 .0006 -.00062 1.38763 -121.22 -718.103)" cx="279.422" cy="446.483" fx="279.422" fy="446.483" r="224"/><linearGradient xlink:href="#b" id="e" gradientUnits="userSpaceOnUse" gradientTransform="matrix(1.0015 0 0 .99993 72.09 56.015)" x1="43.844" y1="234" x2="-60" y2="234"/><linearGradient id="b"><stop offset="0" stop-color="#d5d3cf"/><stop offset=".038" stop-color="#e3e2df"/><stop offset=".077" stop-color="#c0bfbc"/><stop offset=".923" stop-color="#c0bfbc"/><stop offset=".962" stop-color="#e3e2df"/><stop offset="1" stop-color="#d5d3cf"/></linearGradient></defs><g transform="translate(0 -172)"><g transform="matrix(1.34135 0 0 1.34135 -87.385 -639.02)"><rect ry="32" rx="32" y="-100" x="112" height="288" width="288" id="c" style="marker:none" display="inline" opacity="1" vector-effect="none" fill="#241f31" fill-opacity="1" stroke="none" stroke-width="32" stroke-linecap="butt" stroke-linejoin="miter" stroke-miterlimit="4" stroke-dasharray="none" stroke-dashoffset="0" stroke-opacity="1" marker-start="none" marker-mid="none" marker-end="none" paint-order="normal"/><use transform="rotate(45 256 44)" xlink:href="#c" width="100%" height="100%" style="marker:none" fill="#241f31" stroke-width="32"/><circle r="168" cy="44" cx="256" style="marker:none" fill="url(#d)"/></g><rect ry="8" rx="8" height="48" width="104" x="12" y="240" fill="url(#e)"/><path d="M62 218v66h46c4.432 0 8-3.568 8-8v-50c0-4.432-3.568-8-8-8H62z" fill="#deddda"/><path d="M20 182c-4.432 0-8 3.568-8 8v84c0 4.432 3.568 8 8 8h44v-50h52v-42c0-4.432-3.568-8-8-8H66v2h-4v-2z" fill="#f6f5f4"/><path d="M12 232h104" fill="none" stroke="#deddda" stroke-width="4"/><path d="M12 231h104" fill="none" stroke="#c0bfbc" stroke-width="2"/><path d="M64 184v100" fill="none" stroke="#deddda" stroke-width="4"/><path d="M28 189.57v32.454h4.103V209.72L50 200.943z" fill="#2dc0af"/><path style="line-height:1000%;-inkscape-font-specification:'Cantarell Ultra-Bold'" d="M28 270h18v-6h-6v-20h-3.196l-10.069 5.225 2.193 5.206L34 252l-.02 12H28z" font-weight="800" font-family="Cantarell" letter-spacing="0" word-spacing="0" fill="#1a5fb4"/><g transform="translate(-2 1)" fill="#a51d2d"><circle style="marker:none" cx="91" cy="257" r="15"/><rect style="marker:none" width="6" height="38" x="88" y="238" rx="2" ry="2"/><rect ry="2" rx="2" y="-110" x="254" height="38" width="6" style="marker:none" transform="rotate(90)"/><rect ry="2" rx="2" y="98.38" x="243.073" height="38" width="6" style="marker:none" transform="rotate(45)"/><rect transform="rotate(135)" style="marker:none" width="6" height="38" x="114.38" y="-265.073" rx="2" ry="2"/></g><g transform="translate(-2 -1)" fill="#ed333b"><circle r="15" cy="257" cx="91" style="marker:none"/><rect ry="2" rx="2" y="238" x="88" height="38" width="6" style="marker:none"/><rect transform="rotate(90)" style="marker:none" width="6" height="38" x="254" y="-110" rx="2" ry="2"/><rect transform="rotate(45)" style="marker:none" width="6" height="38" x="243.073" y="98.38" rx="2" ry="2"/><rect ry="2" rx="2" y="-265.073" x="114.38" height="38" width="6" style="marker:none" transform="rotate(135)"/></g></g></svg>