<?xml version="1.0" encoding="UTF-8"?>
<svg width="256" height="256" version="1.1"
     xmlns="http://www.w3.org/2000/svg"
     xmlns:xlink="http://www.w3.org/1999/xlink">
  <defs>
    <linearGradient id="Gradient" x1="0" x2="0" y1="0" y2="1">
      <stop offset="0%" style="stop-color:#ED333B;stop-opacity:1" />
      <stop offset="100%" style="stop-color:#F66151;stop-opacity:1" />
    </linearGradient>
    <filter id="alpha-to-white">
      <feColorMatrix in="SourceGraphic" type="matrix"
                     values="0 0 0 1 0
                             0 0 0 1 0
                             0 0 0 1 0
                             0 0 0 1 0"/>
    </filter>
    <g id="child-svg">
<svg height="16px" viewBox="0 0 16 16" width="16px" xmlns="http://www.w3.org/2000/svg">
    <path d="m 5 0 c -1.097656 0 -2 0.902344 -2 2 c 0 0.734375 0.402344 1.382812 1 1.730469 v 8.539062 c -0.597656 0.347657 -1 0.996094 -1 1.730469 c 0 1.097656 0.902344 2 2 2 s 2 -0.902344 2 -2 c 0 -0.734375 -0.402344 -1.382812 -1 -1.730469 v -8.539062 c 0.300781 -0.175781 0.554688 -0.429688 0.730469 -0.730469 h 2.269531 s 0.542969 0.015625 1.050781 0.269531 c 0.511719 0.253907 0.949219 0.5625 0.949219 1.730469 s -0.4375 1.476562 -0.949219 1.730469 c -0.132812 0.066406 -0.265625 0.117187 -0.394531 0.15625 c -0.359375 -0.535157 -0.96875 -0.886719 -1.65625 -0.886719 c -1.097656 0 -2 0.902344 -2 2 s 0.902344 2 2 2 c 0.15625 0 0.3125 -0.019531 0.457031 -0.054688 l 2.625 3.496094 c -0.054687 0.175782 -0.082031 0.363282 -0.082031 0.558594 c 0 1.097656 0.902344 2 2 2 s 2 -0.902344 2 -2 s -0.902344 -2 -2 -2 c -0.15625 0 -0.3125 0.019531 -0.457031 0.054688 l -2.417969 -3.222657 c 0.253906 -0.070312 0.539062 -0.171875 0.824219 -0.3125 c 0.988281 -0.496093 2.050781 -1.6875 2.050781 -3.519531 s -1.0625 -3.023438 -2.050781 -3.519531 c -0.992188 -0.496094 -1.949219 -0.480469 -1.949219 -0.480469 h -2.269531 c -0.347657 -0.597656 -0.996094 -1 -1.730469 -1 z m 0 1 c 0.558594 0 1 0.441406 1 1 s -0.441406 1 -1 1 s -1 -0.441406 -1 -1 s 0.441406 -1 1 -1 z m 3 6 c 0.558594 0 1 0.441406 1 1 s -0.441406 1 -1 1 s -1 -0.441406 -1 -1 s 0.441406 -1 1 -1 z m -3 6 c 0.558594 0 1 0.441406 1 1 s -0.441406 1 -1 1 s -1 -0.441406 -1 -1 s 0.441406 -1 1 -1 z m 8 0 c 0.558594 0 1 0.441406 1 1 s -0.441406 1 -1 1 s -1 -0.441406 -1 -1 s 0.441406 -1 1 -1 z m 0 0" fill="#2e3436"/>
</svg>
</g>
  </defs>
  <rect
      width="256"
      height="256"
      fill="url(#Gradient)"
      ry="0"
      x="0"
      y="0" />
  <use xlink:href="#child-svg" filter="url(#alpha-to-white)"
       transform="matrix(8,0,0,8,64,64)" />
</svg>
